<svg height="480pt" viewBox="-31 0 479 480" width="480pt" xmlns="http://www.w3.org/2000/svg" xmlns:xlink="http://www.w3.org/1999/xlink"><linearGradient id="a"><stop offset="0" stop-color="#e93e3a"/><stop offset=".35" stop-color="#ed683c"/><stop offset=".7" stop-color="#f3903f"/><stop offset="1" stop-color="#fdc70c"/></linearGradient><linearGradient id="b" gradientUnits="userSpaceOnUse" x1="271.892" x2="273.1" xlink:href="#a" y1="497.36" y2="-14.072"/><linearGradient id="c" gradientUnits="userSpaceOnUse" x1="223.54" x2="224.74" xlink:href="#a" y1="497.248" y2="-14.184"/><linearGradient id="d" gradientUnits="userSpaceOnUse" x1="255.54" x2="256.74" xlink:href="#a" y1="497.32" y2="-14.112"/><linearGradient id="e" gradientUnits="userSpaceOnUse" x1="287.54" x2="288.74" xlink:href="#a" y1="497.392" y2="-14.032"/><linearGradient id="f" gradientUnits="userSpaceOnUse" x1="319.54" x2="320.74" xlink:href="#a" y1="497.472" y2="-13.96"/><linearGradient id="g" gradientUnits="userSpaceOnUse" x1="120.34" x2="121.548" xlink:href="#a" y1="497" y2="-14.424"/><linearGradient id="h" gradientUnits="userSpaceOnUse" x1="226.612" x2="227.812" xlink:href="#a" y1="497.256" y2="-14.176"/><linearGradient id="i" gradientUnits="userSpaceOnUse" x1="275.765376" x2="276.965376" xlink:href="#a" y1="497.365204" y2="-14.058796"/><linearGradient id="j" gradientUnits="userSpaceOnUse" x1="324.916" x2="326.116" xlink:href="#a" y1="497.48" y2="-13.944"/><linearGradient id="k" gradientUnits="userSpaceOnUse" x1="223.932" x2="225.132" xlink:href="#a" y1="497.248" y2="-14.184"/><linearGradient id="l" gradientUnits="userSpaceOnUse" x1="303.932" x2="305.132" xlink:href="#a" y1="497.432" y2="-13.992"/><linearGradient id="m" gradientUnits="userSpaceOnUse" x1="232.084" x2="233.284" xlink:href="#a" y1="497.264" y2="-14.16"/><linearGradient id="n" gradientUnits="userSpaceOnUse" x1="312.084" x2="313.284" xlink:href="#a" y1="497.456" y2="-13.976"/><linearGradient id="o" gradientUnits="userSpaceOnUse" x1="240.004" x2="241.212" xlink:href="#a" y1="497.28" y2="-14.144"/><linearGradient id="p" gradientUnits="userSpaceOnUse" x1="320.004" x2="321.212" xlink:href="#a" y1="497.472" y2="-13.96"/><path d="m392.5 0h-240c-13.253906 0-24 10.746094-24 24v120h16v-120c0-4.417969 3.582031-8 8-8h49.761719l4.964843 19.878906c1.78125 7.125 8.179688 12.121094 15.519532 12.121094h99.507812c7.339844 0 13.738282-4.996094 15.519532-12.121094l4.964843-19.878906h49.761719c4.417969 0 8 3.582031 8 8v432c0 4.417969-3.582031 8-8 8h-136v16h136c13.253906 0 24-10.746094 24-24v-432c0-13.253906-10.746094-24-24-24zm-70.246094 32h-99.515625l-4-16h107.515625zm0 0" fill="url(#b)"/><path d="m216.5 80h16v16h-16zm0 0" fill="url(#c)"/><path d="m248.5 80h16v16h-16zm0 0" fill="url(#d)"/><path d="m280.5 80h16v16h-16zm0 0" fill="url(#e)"/><path d="m312.5 80h16v16h-16zm0 0" fill="url(#f)"/><path d="m199.242188 334.601562-46.742188-12.714843v-12c15.027344-10.445313 23.988281-27.585938 24-45.886719v-8c4.417969 0 8-3.582031 8-8v-24c-.039062-35.328125-28.671875-63.960938-64-64h-72c-8.835938 0-16 7.164062-16 16v40c-.050781 18.1875 12.226562 34.101562 29.832031 38.664062.710938.199219 1.449219.289063 2.167969.441407v8.894531c.011719 18.300781 8.976562 35.4375 24 45.886719v12l-46.769531 12.722656c-24.300781 6.726563-41.15625 28.8125-41.230469 54.03125v83.359375c0 4.417969 3.582031 8 8 8h224c4.417969 0 8-3.582031 8-8v-83.359375c-.078125-25.226563-16.941406-47.316406-41.257812-54.039063zm-150.742188-118.601562v-40h72c26.5.027344 47.972656 21.5 48 48v16h-5.28125c-7.324219-.015625-13.710938-4.988281-15.519531-12.089844l-3.429688-13.839844c-.746093-3-3.15625-5.300781-6.183593-5.910156-.523438-.109375-1.054688-.164062-1.585938-.160156-2.519531 0-4.890625 1.1875-6.398438 3.199219l-4.800781 6.402343c-2.867187 3.761719-6.175781 7.164063-9.855469 10.132813-9.914062 7.945313-22.242187 12.269531-34.945312 12.265625h-8c-2.039062.019531-4.070312-.25-6.03125-.800781-10.59375-2.710938-17.992188-12.265625-17.96875-23.199219zm32 48v-8c16.378906-.003906 32.265625-5.597656 45.03125-15.855469 2.519531-2.039062 4.90625-4.238281 7.144531-6.585937 3.917969 12.359375 14.90625 21.132812 27.824219 22.21875v8.222656c0 22.089844-17.910156 40-40 40s-40-17.910156-40-40zm40 56c5.421875-.015625 10.8125-.824219 16-2.398438v10.398438c.027344 2.292969 1.042969 4.460938 2.792969 5.945312l-18.792969 15.65625-18.792969-15.648437c1.75-1.484375 2.769531-3.65625 2.792969-5.953125v-10.398438c5.1875 1.574219 10.578125 2.382813 16 2.398438zm104 144h-24v-72h-16v72h-128v-72h-16v72h-24v-75.359375c.058594-18.015625 12.101562-33.792969 29.464844-38.601563l37.734375-10.261718 31.679687 26.398437c2.96875 2.472657 7.273438 2.472657 10.242188 0l31.679687-26.398437 37.710938 10.253906c17.371093 4.804688 29.421875 20.585938 29.488281 38.609375zm0 0" fill="url(#g)"/><path d="m210.84375 189.65625 24 24 11.3125-11.3125-18.34375-18.34375 18.34375-18.34375-11.3125-11.3125-24 24c-3.121094 3.125-3.121094 8.1875 0 11.3125zm0 0" fill="url(#h)"/><path d="m257.007812 213.1875 24-64 14.980469 5.621094-24 64zm0 0" fill="url(#i)"/><path d="m318.15625 213.65625 24-24c3.121094-3.125 3.121094-8.1875 0-11.3125l-24-24-11.3125 11.3125 18.34375 18.34375-18.34375 18.34375zm0 0" fill="url(#j)"/><path d="m208.5 248h32v16h-32zm0 0" fill="url(#k)"/><path d="m256.5 248h96v16h-96zm0 0" fill="url(#l)"/><path d="m216.5 312h32v16h-32zm0 0" fill="url(#m)"/><path d="m264.5 312h96v16h-96zm0 0" fill="url(#n)"/><path d="m224.5 280h32v16h-32zm0 0" fill="url(#o)"/><path d="m272.5 280h96v16h-96zm0 0" fill="url(#p)"/></svg>