<?xml version="1.0"?>
<svg xmlns="http://www.w3.org/2000/svg" xmlns:xlink="http://www.w3.org/1999/xlink" id="Layer_1" data-name="Layer 1" viewBox="0 0 512 512" width="512" height="512"><defs><linearGradient id="linear-gradient" x1="272.828" y1="476" x2="272.828" y2="19.369" gradientUnits="userSpaceOnUse"><stop offset="0.322" stop-color="#a163f5"/><stop offset="0.466" stop-color="#b074ee"/><stop offset="0.752" stop-color="#d8a1dd"/><stop offset="0.898" stop-color="#efbad3"/></linearGradient><linearGradient id="linear-gradient-2" x1="198.575" y1="476" x2="198.575" y2="19.369" xlink:href="#linear-gradient"/><linearGradient id="linear-gradient-3" x1="256" y1="476" x2="256" y2="19.369" xlink:href="#linear-gradient"/><linearGradient id="linear-gradient-4" x1="318.726" y1="476" x2="318.726" y2="19.369" xlink:href="#linear-gradient"/><linearGradient id="linear-gradient-5" x1="318.575" y1="476" x2="318.575" y2="19.369" xlink:href="#linear-gradient"/><linearGradient id="linear-gradient-6" x1="174.855" y1="476" x2="174.855" y2="19.369" xlink:href="#linear-gradient"/><linearGradient id="linear-gradient-7" x1="126.088" y1="476" x2="126.088" y2="19.369" xlink:href="#linear-gradient"/><linearGradient id="linear-gradient-8" x1="159.855" y1="476" x2="159.855" y2="19.369" xlink:href="#linear-gradient"/><linearGradient id="linear-gradient-9" x1="111.088" y1="476" x2="111.088" y2="19.369" xlink:href="#linear-gradient"/><linearGradient id="linear-gradient-10" x1="195" y1="476" x2="195" y2="19.369" xlink:href="#linear-gradient"/><linearGradient id="linear-gradient-11" x1="131.088" y1="476" x2="131.088" y2="19.369" xlink:href="#linear-gradient"/><linearGradient id="linear-gradient-12" x1="170" y1="476" x2="170" y2="19.369" xlink:href="#linear-gradient"/><linearGradient id="linear-gradient-13" x1="116.088" y1="476" x2="116.088" y2="19.369" xlink:href="#linear-gradient"/></defs><title>Application Settings</title><path d="M267.27,107h11.115a6,6,0,0,0,0-12H267.27a6,6,0,0,0,0,12Z" style="fill:url(#linear-gradient)"/><path d="M198.575,414a21,21,0,1,0,21,21A21.024,21.024,0,0,0,198.575,414Zm0,30a9,9,0,1,1,9-9A9.011,9.011,0,0,1,198.575,444Z" style="fill:url(#linear-gradient-2)"/><path d="M433.788,233.169l-20.626-2A96.613,96.613,0,0,0,402.835,206.5l13.208-15.917a6,6,0,0,0-.339-8.042l-23.475-23.783a6,6,0,0,0-8.093-.406l-15.952,13.212a98.685,98.685,0,0,0-24.63-10.407l-2-20.736A6,6,0,0,0,335.584,135H325V81c0-25.364-21.06-46-46.425-46h-160A45.691,45.691,0,0,0,73,81V431a45.691,45.691,0,0,0,45.575,46h160C303.94,477,325,456.364,325,431V377h10.584a6,6,0,0,0,5.973-5.424l2-20.733a96.732,96.732,0,0,0,24.667-10.38l15.918,13.182a6,6,0,0,0,8.069-.379l23.783-23.783a6,6,0,0,0,.378-8.069L403.159,305.46a98.684,98.684,0,0,0,10.408-24.636L433.8,278.83a5.82,5.82,0,0,0,5.2-5.972V239.141A5.818,5.818,0,0,0,433.788,233.169ZM278.575,465h-160A33.678,33.678,0,0,1,85,431V405H313v26C313,449.748,297.323,465,278.575,465ZM313,393H85V107H247.575a6,6,0,0,0,0-12H85V81a33.678,33.678,0,0,1,33.575-34h160C297.323,47,313,62.252,313,81V95H298.575a6,6,0,0,0,0,12H313v28H301.867a6,6,0,0,0-5.972,5.424l-2,20.733a96.732,96.732,0,0,0-24.667,10.38l-15.917-13.182a6,6,0,0,0-8.07.379l-23.783,23.783a6,6,0,0,0-.378,8.069l13.212,15.954a98.757,98.757,0,0,0-10.408,24.63l-20.6,2A5.882,5.882,0,0,0,198,239.141v33.717a5.883,5.883,0,0,0,5.287,5.973l20.664,2A96.663,96.663,0,0,0,234.3,305.5l-13.2,15.917a6,6,0,0,0,.37,8.069l23.778,23.783a6,6,0,0,0,8.068.379l15.953-13.212A98.7,98.7,0,0,0,293.9,350.84l2,20.736A6,6,0,0,0,301.867,377H313ZM427,267.416,407.944,269.3a5.881,5.881,0,0,0-5.176,4.7A86.7,86.7,0,0,1,390.7,302.721a6,6,0,0,0,.447,7.079l12.485,15.06L387.58,340.918l-15.057-12.471a6,6,0,0,0-7.153-.371,84.213,84.213,0,0,1-28.646,12.073,6,6,0,0,0-4.7,5.289L330.135,365H307.317l-1.886-19.562a6,6,0,0,0-4.7-5.289,86.862,86.862,0,0,1-28.722-12.123,6,6,0,0,0-7.08.421l-15.06,12.471L233.807,324.86l12.472-15.06a6,6,0,0,0,.371-7.154A84.207,84.207,0,0,1,234.577,274a5.844,5.844,0,0,0-5.152-4.7L210,267.409V244.591l19.425-1.886a5.922,5.922,0,0,0,5.221-4.7,86.74,86.74,0,0,1,12.088-28.722,6,6,0,0,0-.438-7.079l-12.48-15.06,16.053-16.058,15.058,12.471a6,6,0,0,0,7.154.371,84.222,84.222,0,0,1,28.646-12.073,6,6,0,0,0,4.7-5.289L307.317,147h22.818l1.885,19.562a6,6,0,0,0,4.705,5.289,86.862,86.862,0,0,1,28.722,12.123,6,6,0,0,0,7.08-.421L387.559,171.1l15.806,16.009L390.872,202.2a6,6,0,0,0-.372,7.154A84.2,84.2,0,0,1,402.573,238a5.762,5.762,0,0,0,5.077,4.7L427,244.591Z" style="fill:url(#linear-gradient-3)"/><path d="M318.726,184.354A71.646,71.646,0,1,0,390.372,256,71.727,71.727,0,0,0,318.726,184.354Zm0,131.292A59.646,59.646,0,1,1,378.372,256,59.713,59.713,0,0,1,318.726,315.646Z" style="fill:url(#linear-gradient-4)"/><path d="M341.585,234.629l-30.793,30.063-15.227-14.866a6,6,0,0,0-8.382,8.587L306.6,277.371a6,6,0,0,0,8.383,0l34.984-34.156a6,6,0,1,0-8.383-8.586Z" style="fill:url(#linear-gradient-5)"/><path d="M179,237h-8.29a6,6,0,0,0,0,12H179a6,6,0,0,0,0-12Z" style="fill:url(#linear-gradient-6)"/><path d="M108,249h36.177a6,6,0,1,0,0-12H108a6,6,0,0,0,0,12Z" style="fill:url(#linear-gradient-7)"/><path d="M179,287H140.71a6,6,0,0,0,0,12H179a6,6,0,0,0,0-12Z" style="fill:url(#linear-gradient-8)"/><path d="M108,299h6.177a6,6,0,1,0,0-12H108a6,6,0,0,0,0,12Z" style="fill:url(#linear-gradient-9)"/><path d="M209,337H181a6,6,0,0,0,0,12h28a6,6,0,0,0,0-12Z" style="fill:url(#linear-gradient-10)"/><path d="M154.177,337H108a6,6,0,0,0,0,12h46.177a6,6,0,1,0,0-12Z" style="fill:url(#linear-gradient-11)"/><path d="M151,195h38a6,6,0,0,0,0-12H151a6,6,0,0,0,0,12Z" style="fill:url(#linear-gradient-12)"/><path d="M108,195h16.177a6,6,0,0,0,0-12H108a6,6,0,0,0,0,12Z" style="fill:url(#linear-gradient-13)"/></svg>
