<?xml version="1.0" encoding="UTF-8" standalone="no"?>
<!-- Generator: Adobe Illustrator 21.0.0, SVG Export Plug-In . SVG Version: 6.00 Build 0)  -->

<svg
   xmlns:dc="http://purl.org/dc/elements/1.1/"
   xmlns:cc="http://creativecommons.org/ns#"
   xmlns:rdf="http://www.w3.org/1999/02/22-rdf-syntax-ns#"
   xmlns:svg="http://www.w3.org/2000/svg"
   xmlns="http://www.w3.org/2000/svg"
   xmlns:sodipodi="http://sodipodi.sourceforge.net/DTD/sodipodi-0.dtd"
   xmlns:inkscape="http://www.inkscape.org/namespaces/inkscape"
   version="1.1"
   id="Capa_1"
   x="0px"
   y="0px"
   viewBox="0 0 699.2 223.1"
   style="enable-background:new 0 0 699.2 223.1;"
   xml:space="preserve"
   inkscape:version="0.91 r13725"
   sodipodi:docname="Marca-Avantic-horizontal-color_V2.svg"><metadata
     id="metadata21"><rdf:RDF><cc:Work
         rdf:about=""><dc:format>image/svg+xml</dc:format><dc:type
           rdf:resource="http://purl.org/dc/dcmitype/StillImage" /><dc:title /></cc:Work></rdf:RDF></metadata><defs
     id="defs19" /><sodipodi:namedview
     pagecolor="#ffffff"
     bordercolor="#666666"
     borderopacity="1"
     objecttolerance="10"
     gridtolerance="10"
     guidetolerance="10"
     inkscape:pageopacity="0"
     inkscape:pageshadow="2"
     inkscape:window-width="1920"
     inkscape:window-height="1057"
     id="namedview17"
     showgrid="false"
     inkscape:zoom="1.9894164"
     inkscape:cx="349.60001"
     inkscape:cy="111.55"
     inkscape:window-x="-8"
     inkscape:window-y="-8"
     inkscape:window-maximized="1"
     inkscape:current-layer="Capa_1" /><style
     type="text/css"
     id="style3">
	.st0{fill:#686867;}
	.st1{fill:#333333;}
	.st2{fill:#C6C6C6;}
	.st3{fill:#FFFFFF;}
	.st4{fill:#E30613;}
</style><rect
     y="0"
     x="0"
     width="699.20001"
     height="223.10001"
     id="rect5"
     style="fill:#ffffff;fill-opacity:1" /><g
     id="g5"><path
       class="st1"
       d="M654.6,142.4c0,2.6-0.2,4-0.5,4.2c-0.6,0.5-3.9,1.1-8.6,1.6c-19.1,2-31.6-4-34.9-16.9   c-0.4-1.7-0.6-4.4-0.6-10.3c0-6,0.2-8.6,0.6-10.3c1.6-6.1,5.9-11.6,11.2-14c5.4-2.5,8.6-3.1,17-3.1c7.5,0,14.2,0.8,15.3,1.7   c0.4,0.3,0.5,1.3,0.4,4.4s0,2.9-0.6,3.4c-0.5,0.6-2.5,0.5-2.5,0.5c-1.6,0-6.1-0.1-10-0.2c-6.1-0.1-7.3-0.1-9.3,0.6   c-5.8,1.9-7.7,6.8-7.2,19.3c0.3,7.1,0.8,9.4,2.9,11.7c2.9,3.2,3.2,3.3,15.2,3.3c5.8,0,10.6-0.4,11.1,0.1   C654.7,139.3,654.6,139.6,654.6,142.4z M582.7,94.2c-5.3,0-6,0.1-6.7,0.8c-0.8,0.8-0.8,1.3-0.8,26.1c0,24.8,0,25.3,0.8,26.1   c0.7,0.7,1.4,0.8,6.7,0.8c5.3,0,6-0.1,6.7-0.8c0.8-0.8,0.8-1.3,0.8-26.1c0-24.8,0-25.3-0.8-26.1C588.7,94.2,588,94.2,582.7,94.2z    M582.7,74.4c-7.6,0-7.4,0-7.4,5.9c0,5.9-0.1,5.9,7.4,5.9s7.4,0,7.4-5.9C590.1,74.4,590.3,74.4,582.7,74.4z M555,94.8   c-0.2-0.3-0.8-0.4-2.5-0.4c-1.4,0-15.8-0.3-15.8-0.3l-0.9,0l-0.1-5.4c-0.1-4.3-0.2-5.4-0.7-5.6c-0.9-0.4-12.1,1-13.3,1.7l-1.1,0.6   l0,1.4c0,0,0,47.4,0.1,50.4c0.1,2,1,3.4,1,3.4c2.4,4.3,7.4,6.9,12.9,7.9c3.2,0.6,8.9,0.2,13.7-0.2v0c2.7-0.2,5.4-0.6,6-0.8   c0.5-0.2,0.8-0.7,0.8-1.7c0.1-0.8,0-2,0-3.8c0-2.4-0.4-2.7-2.3-2.6c-1.2,0.1-3,0.3-5.7,0.3c-7.3-0.2-8-0.3-9.3-1.1   c-1.6-1-2.1-1.5-2.3-7.6c-0.1-2.7,0.1-28.1,0.1-28.1l0.8,0c0,0,14.8-0.3,16.2-0.3s1.9-0.1,2.1-0.3c0.5-0.4,0.4-2.2,0.4-3.9   C555.4,96.9,555.4,95.4,555,94.8z M485.7,94.5c-2.8-0.8-3.8-0.9-12.2-0.9c-8.8,0-9.2,0.1-12.6,1.1c-5.5,1.7-9.1,4.2-11.6,8.2   c-2.7,4.3-2.7,3.8-2.8,24.7c0,0-0.4,18.3,0.3,19.3c0.7,0.9,1.6,1.1,7.2,1c5.5,0,6-0.1,6.8-0.8l0,0c0.8-0.8,0.8-1.3,0.8-19.2   c0-20.5,0.1-21.2,2.5-23c2.1-1.6,3.8-1.8,10.5-1.7c6.1,0.1,7.2,0.2,9.7,2.1c1.9,1.9,2.1,2.8,1.6,22.2c0.1,18.8,0.1,19.1,0.9,19.7   c0.7,0.6,1.7,0.7,6.7,0.7c4.5,0,6.1-0.1,6.7-0.6c0.7-0.5,0.8-1.2,0.8-19c0-18.4,0-18.4-0.9-21.1C497.6,100.4,493.6,96.8,485.7,94.5   z M425.9,148.6c-0.6,0.5-8.1-0.5-11.1-1c-5.1,0.7-10.6,1.1-15,1.1h0c-1.8,0-3.4-0.1-4.8-0.2c-5.3-0.5-10.7-2.3-13.9-4.4   c-4.2-2.9-7.5-8-8.7-13.5c-0.4-1.9-0.6-5.7-0.6-9.5s0.2-7.6,0.6-9.5c1.1-5.5,4.5-10.6,8.7-13.5c3.2-2.1,8.6-3.9,13.9-4.4   c1.3-0.1,3-0.2,4.8-0.2h0c5.4,0,12.6,0.6,18.6,1.6c5.7,1,7.2,1.4,7.8,2.3c0.2,0.2,0.3,10.8,0.3,23.6   C426.5,133.9,426.5,148.1,425.9,148.6z M411.5,103.6l-2.4-0.3c-1.9-0.2-4.1-0.3-6.2-0.3c-3.6,0-6.9,0.2-8.3,0.6   c-4.7,1.4-6.7,3.7-7.5,9.6c-0.2,1.6-0.5,5.6-0.5,7.9c0,2.3,0.2,6,0.4,7.4c0.8,6.3,2.8,8.6,7.6,10.1c1.4,0.4,4.8,0.7,8.3,0.6   c2.1,0,4.3-0.1,6.2-0.3l2.4-0.3V103.6z M344.6,94.2c-6,0-6.8,0.1-7.4,0.7c-0.2,0.2-0.6,1.2-1,2.6c-0.4,1.2-10.4,36.1-11,37.9   c-1.1,3.1-1.6,3.4-2.8,3.5c-0.9,0.1-1.7-0.1-2.1-0.5c-0.4-0.3-0.6-0.7-1.3-3c-0.9-2.9-9.7-33.4-10.4-35.9c-0.2-0.6-0.3-1.2-0.5-1.7   c-0.6-2-1.1-3-1.5-3.2c-0.4-0.2-3.5-0.3-7.3-0.3c-6.3,0.1-6.6,0.1-6.7,0.9c-0.1,0.6,11.7,34.6,15.2,44.4c0.6,1.5,0.9,2.5,1,2.6   c1.8,3,4.6,4.9,8.7,6c2.8,0.7,8.5,0.4,11.5-0.6h0c2.6-0.9,5.1-2.8,6.4-4.8c0.3-0.5,0.7-1.5,1.5-3.5c1.5-3.9,14.8-42.2,15-42.8   C352.6,94.4,352.1,94.2,344.6,94.2z M272.2,148.6c-0.6,0.5-8.1-0.5-11.1-1c-5.1,0.7-10.6,1.1-15,1.1h0c-1.8,0-3.4-0.1-4.8-0.2   c-5.3-0.5-10.7-2.3-13.9-4.4c-4.2-2.9-7.5-8-8.7-13.5c-0.4-1.9-0.6-5.7-0.6-9.5s0.2-7.6,0.6-9.5c1.1-5.5,4.5-10.6,8.7-13.5   c3.2-2.1,8.6-3.9,13.9-4.4c1.3-0.1,3-0.2,4.8-0.2h0c5.4,0,12.6,0.6,18.6,1.6c5.7,1,7.2,1.4,7.8,2.3c0.2,0.2,0.3,10.8,0.3,23.6   C272.7,133.9,272.8,148.1,272.2,148.6z M257.8,103.6l-2.4-0.3c-1.9-0.2-4.1-0.3-6.2-0.3c-3.6,0-6.9,0.2-8.3,0.6   c-4.7,1.4-6.7,3.7-7.5,9.6c-0.2,1.6-0.5,5.6-0.5,7.9c0,2.3,0.2,6,0.4,7.4c0.8,6.3,2.8,8.6,7.6,10.1c1.4,0.4,4.8,0.7,8.3,0.6   c2.1,0,4.3-0.1,6.2-0.3l2.4-0.3V103.6z"
       id="path9" /><path
       class="st2"
       d="M59.5,44.6h104.1c8.2,0,14.9,6.7,14.9,14.9v104.1c0,8.2-6.7,14.9-14.9,14.9H59.5c-8.2,0-14.9-6.7-14.9-14.9   V59.5C44.6,51.3,51.3,44.6,59.5,44.6z"
       id="path11" /><path
       class="st3"
       d="M94.2,173.6h69.4c5.5,0,9.9-4.4,9.9-9.9V94.2c0-5.5-4.4-9.9-9.9-9.9H94.2c-5.5,0-9.9,4.4-9.9,9.9v69.4   C84.3,169.1,88.7,173.6,94.2,173.6z"
       id="path13" /><path
       class="st4"
       d="M94.2,89.3h34.7c2.7,0,5,2.2,5,5v34.7c0,2.7-2.2,5-5,5H94.2c-2.7,0-5-2.2-5-5V94.2   C89.3,91.5,91.5,89.3,94.2,89.3z"
       id="path15"
       style="fill:#ff0000;fill-opacity:1" /></g></svg>