<?xml version="1.0" encoding="UTF-8" standalone="no"?>
<!-- Generator: Adobe Illustrator 21.0.0, SVG Export Plug-In . SVG Version: 6.00 Build 0)  -->

<svg
   xmlns:dc="http://purl.org/dc/elements/1.1/"
   xmlns:cc="http://creativecommons.org/ns#"
   xmlns:rdf="http://www.w3.org/1999/02/22-rdf-syntax-ns#"
   xmlns:svg="http://www.w3.org/2000/svg"
   xmlns="http://www.w3.org/2000/svg"
   xmlns:sodipodi="http://sodipodi.sourceforge.net/DTD/sodipodi-0.dtd"
   xmlns:inkscape="http://www.inkscape.org/namespaces/inkscape"
   version="1.1"
   id="Capa_1"
   x="0px"
   y="0px"
   viewBox="0 0 282.7 266"
   xml:space="preserve"
   inkscape:version="0.91 r13725"
   sodipodi:docname="Marca-Avantic-central-negro_V2.svg"
   width="282.70001"
   height="266"><metadata
     id="metadata19"><rdf:RDF><cc:Work
         rdf:about=""><dc:format>image/svg+xml</dc:format><dc:type
           rdf:resource="http://purl.org/dc/dcmitype/StillImage" /><dc:title /></cc:Work></rdf:RDF></metadata><defs
     id="defs17" /><sodipodi:namedview
     pagecolor="#ffffff"
     bordercolor="#666666"
     borderopacity="1"
     objecttolerance="10"
     gridtolerance="10"
     guidetolerance="10"
     inkscape:pageopacity="0"
     inkscape:pageshadow="2"
     inkscape:window-width="1920"
     inkscape:window-height="1057"
     id="namedview15"
     showgrid="false"
     inkscape:zoom="3.3345865"
     inkscape:cx="141.35001"
     inkscape:cy="133"
     inkscape:window-x="-8"
     inkscape:window-y="-8"
     inkscape:window-maximized="1"
     inkscape:current-layer="Capa_1" /><rect
     width="282.70001"
     height="266"
     id="rect5"
     x="0"
     y="0"
     style="fill:#ffffff;fill-opacity:1" /><g
     id="g3"><g
       id="g5" /><g
       id="g9"><path
         d="m 238,218.6 c 0,1.2 -0.1,1.8 -0.2,1.9 -0.3,0.2 -1.7,0.5 -3.8,0.7 -8.5,0.9 -14,-1.8 -15.5,-7.5 -0.2,-0.8 -0.3,-1.9 -0.3,-4.6 0,-2.6 0.1,-3.8 0.3,-4.6 0.7,-2.7 2.6,-5.1 5,-6.2 2.4,-1.1 3.8,-1.4 7.5,-1.4 3.3,0 6.3,0.3 6.8,0.8 0.2,0.1 0.2,0.6 0.2,1.9 0,1.3 0,1.3 -0.2,1.5 -0.2,0.3 -1.1,0.2 -1.1,0.2 -0.7,0 -2.7,0 -4.4,-0.1 -2.7,-0.1 -3.3,0 -4.1,0.2 -2.6,0.8 -3.4,3 -3.2,8.6 0.1,3.1 0.4,4.2 1.3,5.2 1.3,1.4 1.4,1.4 6.7,1.5 2.6,0 4.7,-0.2 4.9,0 0.2,0.5 0.1,0.7 0.1,1.9 z m -31.8,-21.4 c -2.4,0 -2.7,0 -3,0.3 -0.3,0.3 -0.3,0.6 -0.3,11.6 0,11 0,11.2 0.3,11.6 0.3,0.3 0.6,0.3 3,0.3 2.4,0 2.7,0 3,-0.3 0.3,-0.3 0.3,-0.6 0.3,-11.6 0,-11 0,-11.2 -0.3,-11.6 -0.4,-0.3 -0.7,-0.3 -3,-0.3 z m 0,-8.8 c -3.4,0 -3.3,0 -3.3,2.6 0,2.6 -0.1,2.6 3.3,2.6 3.4,0 3.3,0 3.3,-2.6 0,-2.6 0,-2.6 -3.3,-2.6 z m -12.3,9.1 c -0.1,-0.1 -0.4,-0.2 -1.1,-0.2 -0.6,0 -7,-0.1 -7,-0.1 l -0.4,0 0,-2.4 c 0,-1.9 -0.1,-2.4 -0.3,-2.5 -0.4,-0.2 -5.3,0.5 -5.9,0.7 l -0.5,0.3 0,0.6 c 0,0 0,21 0.1,22.3 0.1,0.9 0.4,1.5 0.4,1.5 1.1,1.9 3.3,3 5.7,3.5 1.4,0.3 3.9,0.1 6.1,-0.1 l 0,0 c 1.2,-0.1 2.4,-0.3 2.7,-0.3 0.2,-0.1 0.3,-0.3 0.4,-0.8 0,-0.4 0,-0.9 0,-1.7 0,-1.1 -0.2,-1.2 -1,-1.1 -0.5,0 -1.3,0.2 -2.5,0.1 -3.2,-0.1 -3.5,-0.1 -4.1,-0.5 -0.7,-0.4 -0.9,-0.7 -1,-3.4 0,-1.2 0.1,-12.5 0.1,-12.5 l 0.4,0 c 0,0 6.5,-0.1 7.2,-0.1 0.6,0 0.8,0 0.9,-0.1 0.2,-0.2 0.2,-1 0.2,-1.7 -0.2,-0.6 -0.2,-1.3 -0.4,-1.5 z m -30.7,-0.1 c -1.2,-0.4 -1.7,-0.4 -5.4,-0.4 -3.9,0 -4.1,0 -5.6,0.5 -2.5,0.8 -4,1.9 -5.2,3.6 -1.2,1.9 -1.2,1.7 -1.3,10.9 0,0 -0.2,8.1 0.1,8.5 0.3,0.4 0.7,0.5 3.2,0.4 2.4,0 2.7,0 3,-0.3 l 0,0 c 0.3,-0.3 0.3,-0.6 0.3,-8.5 0,-9.1 0,-9.4 1.1,-10.2 0.9,-0.7 1.7,-0.8 4.7,-0.8 2.7,0 3.2,0.1 4.3,0.9 0.9,0.8 0.9,1.2 0.7,9.8 0,8.3 0.1,8.5 0.4,8.8 0.3,0.3 0.7,0.3 3,0.3 2,0 2.7,-0.1 2.9,-0.2 0.3,-0.2 0.3,-0.5 0.3,-8.4 0,-8.2 0,-8.2 -0.4,-9.4 -0.8,-2.9 -2.6,-4.5 -6.1,-5.5 z m -26.5,23.9 c -0.3,0.2 -3.6,-0.2 -4.9,-0.4 -2.3,0.3 -4.7,0.5 -6.7,0.5 l 0,0 c -0.8,0 -1.5,0 -2.1,-0.1 -2.3,-0.2 -4.7,-1 -6.1,-1.9 -1.9,-1.3 -3.3,-3.5 -3.8,-6 -0.2,-0.8 -0.3,-2.5 -0.3,-4.2 0,-1.7 0.1,-3.4 0.3,-4.2 0.5,-2.4 2,-4.7 3.8,-6 1.4,-1 3.8,-1.7 6.1,-1.9 0.6,-0.1 1.3,-0.1 2.1,-0.1 l 0,0 c 2.4,0 5.6,0.3 8.2,0.7 2.5,0.4 3.2,0.6 3.5,1 0.1,0.1 0.1,4.8 0.1,10.5 0,5.6 0.1,11.9 -0.2,12.1 z m -6.4,-19.9 -1.1,-0.1 c -0.8,-0.1 -1.8,-0.1 -2.7,-0.1 -1.6,0 -3.1,0.1 -3.7,0.3 -2.1,0.6 -3,1.6 -3.3,4.2 -0.1,0.7 -0.2,2.5 -0.2,3.5 0,1 0.1,2.6 0.2,3.3 0.3,2.8 1.2,3.8 3.4,4.5 0.6,0.2 2.1,0.3 3.7,0.3 0.9,0 1.9,0 2.7,-0.1 l 1.1,-0.1 0,-15.7 z m -29.7,-4.2 c -2.6,0 -3,0 -3.3,0.3 -0.1,0.1 -0.3,0.5 -0.5,1.1 -0.2,0.5 -4.6,16 -4.9,16.8 -0.5,1.4 -0.7,1.5 -1.3,1.5 -0.4,0 -0.7,0 -0.9,-0.2 -0.2,-0.2 -0.3,-0.3 -0.6,-1.4 -0.4,-1.3 -4.3,-14.8 -4.6,-15.9 -0.1,-0.3 -0.1,-0.5 -0.2,-0.7 -0.3,-0.9 -0.5,-1.3 -0.7,-1.4 -0.2,-0.1 -1.6,-0.2 -3.2,-0.1 -2.8,0 -2.9,0.1 -3,0.4 0,0.3 5.2,15.3 6.7,19.7 0.2,0.7 0.4,1.1 0.4,1.2 0.8,1.3 2,2.2 3.8,2.6 1.2,0.3 3.7,0.2 5.1,-0.3 l 0,0 c 1.2,-0.4 2.3,-1.2 2.8,-2.1 0.1,-0.2 0.3,-0.7 0.7,-1.5 0.7,-1.7 6.5,-18.7 6.6,-19 0.7,-0.9 0.5,-1 -2.9,-1 z m -32,24.1 c -0.3,0.2 -3.6,-0.2 -4.9,-0.4 -2.3,0.3 -4.7,0.5 -6.7,0.5 l 0,0 c -0.8,0 -1.5,0 -2.1,-0.1 -2.3,-0.2 -4.7,-1 -6.1,-1.9 -1.9,-1.3 -3.3,-3.5 -3.8,-6 -0.2,-0.8 -0.3,-2.5 -0.3,-4.2 0,-1.7 0.1,-3.4 0.3,-4.2 0.5,-2.4 2,-4.7 3.8,-6 1.4,-1 3.8,-1.7 6.1,-1.9 0.6,-0.1 1.3,-0.1 2.1,-0.1 l 0,0 c 2.4,0 5.6,0.3 8.2,0.7 2.5,0.4 3.2,0.6 3.5,1 0.1,0.1 0.1,4.8 0.1,10.5 0,5.6 0,11.9 -0.2,12.1 z m -6.4,-19.9 -1.1,-0.1 c -0.8,-0.1 -1.8,-0.1 -2.7,-0.1 -1.6,0 -3.1,0.1 -3.7,0.3 -2.1,0.6 -3,1.6 -3.3,4.2 -0.1,0.7 -0.2,2.5 -0.2,3.5 0,1 0.1,2.6 0.2,3.3 0.3,2.8 1.2,3.8 3.4,4.5 0.6,0.2 2.1,0.3 3.7,0.3 0.9,0 1.9,0 2.7,-0.1 l 1.1,-0.1 0,-15.7 z"
         id="path11"
         inkscape:connector-curvature="0" /></g><path
       d="m 89.3,44.6 104.1,0 c 8.2,0 14.9,6.7 14.9,14.9 l 0,104.1 c 0,8.2 -6.7,14.9 -14.9,14.9 l -104.1,0 c -8.2,0 -14.9,-6.7 -14.9,-14.9 l 0,-104.1 c 0,-8.2 6.7,-14.9 14.9,-14.9 z m 34.7,129 69.4,0 c 5.5,0 9.9,-4.4 9.9,-9.9 l 0,-69.5 c 0,-5.5 -4.4,-9.9 -9.9,-9.9 l -69.4,0 c -5.5,0 -9.9,4.4 -9.9,9.9 l 0,69.4 c 0,5.5 4.4,10 9.9,10 z m -5,-79.4 0,34.7 c 0,2.7 2.2,5 5,5 l 34.7,0 c 2.7,0 5,-2.2 5,-5 l 0,-34.7 c 0,-2.7 -2.2,-5 -5,-5 l -34.7,0 c -2.7,0.1 -5,2.3 -5,5 z"
       id="path13"
       inkscape:connector-curvature="0" /></g></svg>