<?xml version="1.0" encoding="UTF-8" standalone="no"?>
<!-- Generator: Adobe Illustrator 21.0.0, SVG Export Plug-In . SVG Version: 6.00 Build 0)  -->

<svg
   xmlns:dc="http://purl.org/dc/elements/1.1/"
   xmlns:cc="http://creativecommons.org/ns#"
   xmlns:rdf="http://www.w3.org/1999/02/22-rdf-syntax-ns#"
   xmlns:svg="http://www.w3.org/2000/svg"
   xmlns="http://www.w3.org/2000/svg"
   xmlns:sodipodi="http://sodipodi.sourceforge.net/DTD/sodipodi-0.dtd"
   xmlns:inkscape="http://www.inkscape.org/namespaces/inkscape"
   version="1.1"
   id="Capa_1"
   x="0px"
   y="0px"
   viewBox="0 0 282.7 278.5"
   style="enable-background:new 0 0 282.7 278.5;"
   xml:space="preserve"
   inkscape:version="0.91 r13725"
   sodipodi:docname="Marca-Avantic-central-blanco-sobre-negro.svg"><metadata
     id="metadata23"><rdf:RDF><cc:Work
         rdf:about=""><dc:format>image/svg+xml</dc:format><dc:type
           rdf:resource="http://purl.org/dc/dcmitype/StillImage" /></cc:Work></rdf:RDF></metadata><defs
     id="defs21" /><sodipodi:namedview
     pagecolor="#ffffff"
     bordercolor="#666666"
     borderopacity="1"
     objecttolerance="10"
     gridtolerance="10"
     guidetolerance="10"
     inkscape:pageopacity="0"
     inkscape:pageshadow="2"
     inkscape:window-width="1920"
     inkscape:window-height="1057"
     id="namedview19"
     showgrid="false"
     inkscape:zoom="3.0023003"
     inkscape:cx="141.35001"
     inkscape:cy="139.25"
     inkscape:window-x="-8"
     inkscape:window-y="-8"
     inkscape:window-maximized="1"
     inkscape:current-layer="Capa_1" /><style
     type="text/css"
     id="style3">
	.st0{fill:#FFFFFF;}
</style><rect
     width="282.7"
     height="278.5"
     id="rect5" /><g
     id="g13"><path
       style="fill:#ffffff"
       inkscape:connector-curvature="0"
       id="path15"
       d="m 238,218.6 c 0,1.2 -0.1,1.8 -0.2,1.9 -0.3,0.2 -1.7,0.5 -3.8,0.7 -8.5,0.9 -14,-1.8 -15.5,-7.5 -0.2,-0.8 -0.3,-1.9 -0.3,-4.6 0,-2.6 0.1,-3.8 0.3,-4.6 0.7,-2.7 2.6,-5.1 5,-6.2 2.4,-1.1 3.8,-1.4 7.5,-1.4 3.3,0 6.3,0.3 6.8,0.8 0.2,0.1 0.2,0.6 0.2,1.9 0,1.3 0,1.3 -0.2,1.5 -0.2,0.3 -1.1,0.2 -1.1,0.2 -0.7,0 -2.7,0 -4.4,-0.1 -2.7,-0.1 -3.3,0 -4.1,0.2 -2.6,0.8 -3.4,3 -3.2,8.6 0.1,3.1 0.4,4.2 1.3,5.2 1.3,1.4 1.4,1.4 6.7,1.5 2.6,0 4.7,-0.2 4.9,0 0.2,0.5 0.1,0.7 0.1,1.9 z m -31.8,-21.4 c -2.4,0 -2.7,0 -3,0.3 -0.3,0.3 -0.3,0.6 -0.3,11.6 0,11 0,11.2 0.3,11.6 0.3,0.3 0.6,0.3 3,0.3 2.4,0 2.7,0 3,-0.3 0.3,-0.3 0.3,-0.6 0.3,-11.6 0,-11 0,-11.2 -0.3,-11.6 -0.4,-0.3 -0.7,-0.3 -3,-0.3 z m 0,-8.8 c -3.4,0 -3.3,0 -3.3,2.6 0,2.6 -0.1,2.6 3.3,2.6 3.4,0 3.3,0 3.3,-2.6 0,-2.6 0,-2.6 -3.3,-2.6 z m -12.3,9.1 c -0.1,-0.1 -0.4,-0.2 -1.1,-0.2 -0.6,0 -7,-0.1 -7,-0.1 l -0.4,0 0,-2.4 c 0,-1.9 -0.1,-2.4 -0.3,-2.5 -0.4,-0.2 -5.3,0.5 -5.9,0.7 l -0.5,0.3 0,0.6 c 0,0 0,21 0.1,22.3 0.1,0.9 0.4,1.5 0.4,1.5 1.1,1.9 3.3,3 5.7,3.5 1.4,0.3 3.9,0.1 6.1,-0.1 l 0,0 c 1.2,-0.1 2.4,-0.3 2.7,-0.3 0.2,-0.1 0.3,-0.3 0.4,-0.8 0,-0.4 0,-0.9 0,-1.7 0,-1.1 -0.2,-1.2 -1,-1.1 -0.5,0 -1.3,0.2 -2.5,0.1 -3.2,-0.1 -3.5,-0.1 -4.1,-0.5 -0.7,-0.4 -0.9,-0.7 -1,-3.4 0,-1.2 0.1,-12.5 0.1,-12.5 l 0.4,0 c 0,0 6.5,-0.1 7.2,-0.1 0.6,0 0.8,0 0.9,-0.1 0.2,-0.2 0.2,-1 0.2,-1.7 -0.2,-0.6 -0.2,-1.3 -0.4,-1.5 z m -30.7,-0.1 c -1.2,-0.4 -1.7,-0.4 -5.4,-0.4 -3.9,0 -4.1,0 -5.6,0.5 -2.5,0.8 -4,1.9 -5.2,3.6 -1.2,1.9 -1.2,1.7 -1.3,10.9 0,0 -0.2,8.1 0.1,8.5 0.3,0.4 0.7,0.5 3.2,0.4 2.4,0 2.7,0 3,-0.3 l 0,0 c 0.3,-0.3 0.3,-0.6 0.3,-8.5 0,-9.1 0,-9.4 1.1,-10.2 0.9,-0.7 1.7,-0.8 4.7,-0.8 2.7,0 3.2,0.1 4.3,0.9 0.9,0.8 0.9,1.2 0.7,9.8 0,8.3 0.1,8.5 0.4,8.8 0.3,0.3 0.7,0.3 3,0.3 2,0 2.7,-0.1 2.9,-0.2 0.3,-0.2 0.3,-0.5 0.3,-8.4 0,-8.2 0,-8.2 -0.4,-9.4 -0.8,-2.9 -2.6,-4.5 -6.1,-5.5 z m -26.5,23.9 c -0.3,0.2 -3.6,-0.2 -4.9,-0.4 -2.3,0.3 -4.7,0.5 -6.7,0.5 l 0,0 c -0.8,0 -1.5,0 -2.1,-0.1 -2.3,-0.2 -4.7,-1 -6.1,-1.9 -1.9,-1.3 -3.3,-3.5 -3.8,-6 -0.2,-0.8 -0.3,-2.5 -0.3,-4.2 0,-1.7 0.1,-3.4 0.3,-4.2 0.5,-2.4 2,-4.7 3.8,-6 1.4,-1 3.8,-1.7 6.1,-1.9 0.6,-0.1 1.3,-0.1 2.1,-0.1 l 0,0 c 2.4,0 5.6,0.3 8.2,0.7 2.5,0.4 3.2,0.6 3.5,1 0.1,0.1 0.1,4.8 0.1,10.5 0,5.6 0.1,11.9 -0.2,12.1 z m -6.4,-19.9 -1.1,-0.1 c -0.8,-0.1 -1.8,-0.1 -2.7,-0.1 -1.6,0 -3.1,0.1 -3.7,0.3 -2.1,0.6 -3,1.6 -3.3,4.2 -0.1,0.7 -0.2,2.5 -0.2,3.5 0,1 0.1,2.6 0.2,3.3 0.3,2.8 1.2,3.8 3.4,4.5 0.6,0.2 2.1,0.3 3.7,0.3 0.9,0 1.9,0 2.7,-0.1 l 1.1,-0.1 0,-15.7 z m -29.7,-4.2 c -2.6,0 -3,0 -3.3,0.3 -0.1,0.1 -0.3,0.5 -0.5,1.1 -0.2,0.5 -4.6,16 -4.9,16.8 -0.5,1.4 -0.7,1.5 -1.3,1.5 -0.4,0 -0.7,0 -0.9,-0.2 -0.2,-0.2 -0.3,-0.3 -0.6,-1.4 -0.4,-1.3 -4.3,-14.8 -4.6,-15.9 -0.1,-0.3 -0.1,-0.5 -0.2,-0.7 -0.3,-0.9 -0.5,-1.3 -0.7,-1.4 -0.2,-0.1 -1.6,-0.2 -3.2,-0.1 -2.8,0 -2.9,0.1 -3,0.4 0,0.3 5.2,15.3 6.7,19.7 0.2,0.7 0.4,1.1 0.4,1.2 0.8,1.3 2,2.2 3.8,2.6 1.2,0.3 3.7,0.2 5.1,-0.3 l 0,0 c 1.2,-0.4 2.3,-1.2 2.8,-2.1 0.1,-0.2 0.3,-0.7 0.7,-1.5 0.7,-1.7 6.5,-18.7 6.6,-19 0.7,-0.9 0.5,-1 -2.9,-1 z m -32,24.1 c -0.3,0.2 -3.6,-0.2 -4.9,-0.4 -2.3,0.3 -4.7,0.5 -6.7,0.5 l 0,0 c -0.8,0 -1.5,0 -2.1,-0.1 -2.3,-0.2 -4.7,-1 -6.1,-1.9 -1.9,-1.3 -3.3,-3.5 -3.8,-6 -0.2,-0.8 -0.3,-2.5 -0.3,-4.2 0,-1.7 0.1,-3.4 0.3,-4.2 0.5,-2.4 2,-4.7 3.8,-6 1.4,-1 3.8,-1.7 6.1,-1.9 0.6,-0.1 1.3,-0.1 2.1,-0.1 l 0,0 c 2.4,0 5.6,0.3 8.2,0.7 2.5,0.4 3.2,0.6 3.5,1 0.1,0.1 0.1,4.8 0.1,10.5 0,5.6 0,11.9 -0.2,12.1 z m -6.4,-19.9 -1.1,-0.1 c -0.8,-0.1 -1.8,-0.1 -2.7,-0.1 -1.6,0 -3.1,0.1 -3.7,0.3 -2.1,0.6 -3,1.6 -3.3,4.2 -0.1,0.7 -0.2,2.5 -0.2,3.5 0,1 0.1,2.6 0.2,3.3 0.3,2.8 1.2,3.8 3.4,4.5 0.6,0.2 2.1,0.3 3.7,0.3 0.9,0 1.9,0 2.7,-0.1 l 1.1,-0.1 0,-15.7 z"
       class="st0" /></g><path
     style="fill:#ffffff"
     inkscape:connector-curvature="0"
     id="path17"
     d="m 89.3,44.6 104.1,0 c 8.2,0 14.9,6.7 14.9,14.9 l 0,104.1 c 0,8.2 -6.7,14.9 -14.9,14.9 l -104.1,0 c -8.2,0 -14.9,-6.7 -14.9,-14.9 l 0,-104.1 c 0,-8.2 6.7,-14.9 14.9,-14.9 z m 34.7,129 69.4,0 c 5.5,0 9.9,-4.4 9.9,-9.9 l 0,-69.5 c 0,-5.5 -4.4,-9.9 -9.9,-9.9 l -69.4,0 c -5.5,0 -9.9,4.4 -9.9,9.9 l 0,69.4 c 0,5.5 4.4,10 9.9,10 z m -5,-79.4 0,34.7 c 0,2.7 2.2,5 5,5 l 34.7,0 c 2.7,0 5,-2.2 5,-5 l 0,-34.7 c 0,-2.7 -2.2,-5 -5,-5 l -34.7,0 c -2.7,0.1 -5,2.3 -5,5 z"
     class="st0" /><g
     id="g20"
     transform="matrix(1.0006409,0,0,-1.0006409,236.94326,229.23827)"
     style="fill:#ffffff;fill-opacity:1"><path
       d="m 0,0 c 0,0.32 -0.099,0.571 -0.293,0.752 -0.195,0.181 -0.473,0.27 -0.833,0.27 -0.183,0 -0.344,-0.028 -0.481,-0.084 C -1.746,0.883 -1.86,0.807 -1.95,0.71 -2.04,0.613 -2.107,0.501 -2.152,0.374 -2.197,0.245 -2.22,0.11 -2.22,-0.033 c 0,-0.312 0.098,-0.557 0.293,-0.736 0.196,-0.179 0.47,-0.268 0.823,-0.268 0.186,0 0.349,0.027 0.49,0.084 0.139,0.056 0.254,0.131 0.343,0.226 0.091,0.095 0.159,0.206 0.203,0.331 C -0.023,-0.27 0,-0.138 0,0 m 0.492,-3.331 c 0,0.205 -0.093,0.362 -0.277,0.472 -0.185,0.108 -0.433,0.168 -0.744,0.177 l -1.364,0.042 c -0.125,-0.088 -0.226,-0.17 -0.306,-0.248 -0.079,-0.078 -0.143,-0.153 -0.189,-0.226 -0.047,-0.074 -0.079,-0.145 -0.096,-0.215 -0.018,-0.07 -0.026,-0.141 -0.026,-0.212 0,-0.231 0.129,-0.405 0.386,-0.523 0.258,-0.12 0.616,-0.178 1.076,-0.178 0.29,0 0.533,0.025 0.729,0.077 0.195,0.051 0.353,0.119 0.474,0.203 0.121,0.084 0.207,0.181 0.26,0.289 0.052,0.11 0.077,0.224 0.077,0.342 M 1.156,1.177 C 1.156,1.09 1.141,1.028 1.109,0.994 1.078,0.96 1.038,0.943 0.99,0.943 l -0.742,0 C 0.394,0.81 0.495,0.664 0.552,0.507 0.609,0.35 0.638,0.184 0.638,0.009 c 0,-0.24 -0.043,-0.453 -0.128,-0.64 -0.084,-0.187 -0.204,-0.345 -0.36,-0.474 -0.156,-0.129 -0.34,-0.228 -0.554,-0.296 -0.215,-0.07 -0.452,-0.104 -0.711,-0.104 -0.211,0 -0.411,0.026 -0.602,0.08 -0.19,0.053 -0.339,0.118 -0.446,0.196 -0.068,-0.062 -0.126,-0.133 -0.171,-0.214 -0.045,-0.082 -0.067,-0.175 -0.067,-0.282 0,-0.118 0.063,-0.217 0.189,-0.298 0.126,-0.081 0.289,-0.124 0.49,-0.131 L -0.451,-2.2 c 0.214,-0.007 0.415,-0.033 0.603,-0.08 0.189,-0.047 0.354,-0.116 0.495,-0.208 0.142,-0.092 0.255,-0.204 0.338,-0.339 0.082,-0.134 0.124,-0.291 0.124,-0.472 0,-0.186 -0.043,-0.366 -0.127,-0.537 C 0.897,-4.007 0.766,-4.157 0.588,-4.287 0.41,-4.416 0.183,-4.519 -0.094,-4.596 -0.37,-4.672 -0.7,-4.71 -1.084,-4.71 c -0.366,0 -0.679,0.029 -0.936,0.087 -0.257,0.058 -0.468,0.137 -0.632,0.238 -0.164,0.102 -0.284,0.22 -0.359,0.358 -0.074,0.136 -0.111,0.285 -0.111,0.443 0,0.109 0.015,0.212 0.042,0.309 0.027,0.096 0.069,0.188 0.127,0.275 0.057,0.088 0.128,0.171 0.212,0.253 0.085,0.081 0.182,0.163 0.293,0.247 -0.176,0.081 -0.306,0.18 -0.389,0.295 -0.083,0.115 -0.124,0.237 -0.124,0.369 0,0.192 0.041,0.363 0.124,0.512 0.083,0.147 0.184,0.28 0.301,0.399 -0.1,0.118 -0.178,0.247 -0.234,0.388 -0.054,0.14 -0.083,0.308 -0.083,0.504 0,0.236 0.044,0.449 0.13,0.637 0.087,0.189 0.206,0.348 0.361,0.479 0.153,0.132 0.338,0.231 0.552,0.302 0.214,0.07 0.45,0.105 0.706,0.105 0.134,0 0.261,-0.008 0.38,-0.021 0.12,-0.014 0.229,-0.032 0.329,-0.054 l 1.385,0 c 0.059,0 0.101,-0.02 0.127,-0.061 0.026,-0.04 0.039,-0.099 0.039,-0.177 m -6.702,-4.088 c 0,-0.019 -0.006,-0.036 -0.016,-0.051 -0.01,-0.016 -0.027,-0.028 -0.049,-0.038 -0.023,-0.009 -0.054,-0.017 -0.093,-0.023 -0.04,-0.006 -0.089,-0.009 -0.149,-0.009 -0.061,0 -0.113,0.003 -0.152,0.009 -0.04,0.006 -0.071,0.014 -0.094,0.023 -0.022,0.01 -0.039,0.022 -0.048,0.038 -0.011,0.015 -0.016,0.032 -0.016,0.051 l 0,2.509 c 0,0.261 -0.023,0.474 -0.067,0.637 -0.045,0.164 -0.113,0.304 -0.203,0.421 -0.09,0.117 -0.205,0.207 -0.345,0.271 -0.14,0.063 -0.303,0.095 -0.49,0.095 -0.238,0 -0.477,-0.076 -0.715,-0.228 -0.239,-0.153 -0.49,-0.377 -0.752,-0.673 l 0,-3.032 c 0,-0.019 -0.005,-0.036 -0.016,-0.051 C -8.761,-2.978 -8.777,-2.99 -8.8,-3 c -0.022,-0.009 -0.054,-0.017 -0.094,-0.023 -0.04,-0.006 -0.09,-0.009 -0.152,-0.009 -0.058,0 -0.108,0.003 -0.148,0.009 -0.04,0.006 -0.072,0.014 -0.096,0.023 -0.024,0.01 -0.04,0.022 -0.049,0.038 -0.009,0.015 -0.014,0.032 -0.014,0.051 l 0,4.228 c 0,0.019 0.005,0.036 0.014,0.051 0.009,0.016 0.025,0.029 0.049,0.04 0.024,0.011 0.055,0.019 0.091,0.024 0.036,0.005 0.084,0.006 0.142,0.006 0.059,0 0.108,-10e-4 0.146,-0.006 0.038,-0.005 0.067,-0.013 0.088,-0.024 0.02,-0.011 0.035,-0.024 0.044,-0.04 0.008,-0.015 0.013,-0.032 0.013,-0.051 l 0,-0.598 c 0.27,0.271 0.534,0.468 0.793,0.589 0.259,0.121 0.517,0.182 0.773,0.182 0.307,0 0.566,-0.047 0.777,-0.14 0.211,-0.093 0.382,-0.22 0.511,-0.378 0.13,-0.16 0.223,-0.345 0.28,-0.556 0.057,-0.213 0.086,-0.468 0.086,-0.767 l 0,-2.56 z m -6.765,0 c 0,-0.019 -0.004,-0.036 -0.015,-0.051 -0.01,-0.016 -0.027,-0.028 -0.049,-0.038 -0.022,-0.009 -0.054,-0.017 -0.094,-0.023 -0.04,-0.006 -0.091,-0.009 -0.152,-0.009 -0.06,0 -0.108,0.003 -0.149,0.009 -0.04,0.006 -0.071,0.014 -0.095,0.023 -0.025,0.01 -0.04,0.022 -0.049,0.038 -0.009,0.015 -0.014,0.032 -0.014,0.051 l 0,4.228 c 0,0.019 0.005,0.036 0.014,0.051 0.009,0.016 0.024,0.029 0.049,0.04 0.024,0.011 0.055,0.019 0.095,0.024 0.041,0.005 0.089,0.006 0.149,0.006 0.061,0 0.112,-10e-4 0.152,-0.006 0.04,-0.005 0.072,-0.013 0.094,-0.024 0.022,-0.011 0.039,-0.024 0.049,-0.04 0.011,-0.015 0.015,-0.032 0.015,-0.051 l 0,-4.228 z m 0.094,5.653 c 0,-0.149 -0.029,-0.251 -0.088,-0.304 -0.059,-0.053 -0.166,-0.08 -0.322,-0.08 -0.152,0 -0.256,0.027 -0.313,0.079 -0.057,0.05 -0.086,0.151 -0.086,0.3 0,0.15 0.03,0.251 0.088,0.304 0.059,0.053 0.167,0.079 0.322,0.079 0.152,0 0.257,-0.025 0.313,-0.077 0.057,-0.051 0.086,-0.151 0.086,-0.301 m -3.171,-5.4 c 0,-0.066 -0.007,-0.119 -0.018,-0.159 -0.013,-0.041 -0.032,-0.073 -0.058,-0.096 -0.025,-0.024 -0.063,-0.045 -0.114,-0.066 -0.05,-0.02 -0.108,-0.037 -0.173,-0.051 -0.066,-0.014 -0.136,-0.025 -0.208,-0.033 -0.072,-0.007 -0.144,-0.011 -0.213,-0.011 -0.231,0 -0.428,0.028 -0.591,0.084 -0.162,0.055 -0.295,0.14 -0.399,0.255 -0.104,0.113 -0.179,0.256 -0.225,0.431 -0.047,0.175 -0.07,0.38 -0.07,0.617 l 0,2.63 -0.7,0 c -0.048,0 -0.086,0.02 -0.114,0.059 -0.028,0.038 -0.041,0.097 -0.041,0.175 0,0.041 0.002,0.076 0.009,0.105 0.007,0.03 0.018,0.055 0.032,0.074 0.013,0.021 0.03,0.036 0.049,0.045 0.019,0.009 0.04,0.014 0.065,0.014 l 0.7,0 0,1.037 c 0,0.019 0.004,0.036 0.013,0.052 0.008,0.016 0.025,0.028 0.049,0.04 0.024,0.011 0.056,0.019 0.096,0.023 0.039,0.004 0.089,0.007 0.148,0.007 0.062,0 0.113,-0.003 0.153,-0.007 0.039,-0.004 0.07,-0.012 0.093,-0.023 0.022,-0.012 0.039,-0.024 0.05,-0.04 0.009,-0.016 0.015,-0.033 0.015,-0.052 l 0,-1.037 1.296,0 c 0.024,0 0.046,-0.005 0.065,-0.014 0.019,-0.009 0.036,-0.024 0.049,-0.045 0.014,-0.019 0.024,-0.044 0.032,-0.074 0.006,-0.029 0.01,-0.064 0.01,-0.105 0,-0.078 -0.015,-0.137 -0.045,-0.175 -0.029,-0.039 -0.066,-0.059 -0.111,-0.059 l -1.296,0 0,-2.555 c 0,-0.321 0.051,-0.566 0.153,-0.734 0.102,-0.168 0.288,-0.252 0.557,-0.252 0.083,0 0.158,0.008 0.226,0.024 0.067,0.015 0.127,0.032 0.178,0.051 0.053,0.018 0.096,0.036 0.132,0.051 0.037,0.016 0.07,0.024 0.097,0.024 0.018,0 0.033,-0.004 0.047,-0.01 0.013,-0.006 0.024,-0.018 0.033,-0.035 0.009,-0.017 0.016,-0.039 0.021,-0.066 0.005,-0.026 0.008,-0.059 0.008,-0.099 m -5.219,-0.253 c 0,-0.019 -0.005,-0.036 -0.016,-0.051 -0.01,-0.016 -0.026,-0.028 -0.049,-0.038 -0.022,-0.009 -0.054,-0.017 -0.094,-0.023 -0.04,-0.006 -0.09,-0.009 -0.152,-0.009 -0.06,0 -0.108,0.003 -0.148,0.009 -0.04,0.006 -0.072,0.014 -0.096,0.023 -0.025,0.01 -0.04,0.022 -0.049,0.038 -0.009,0.015 -0.014,0.032 -0.014,0.051 l 0,6.298 c 0,0.018 0.005,0.036 0.014,0.051 0.009,0.016 0.024,0.029 0.049,0.04 0.024,0.01 0.056,0.018 0.096,0.023 0.04,0.005 0.088,0.007 0.148,0.007 0.062,0 0.112,-0.002 0.152,-0.007 0.04,-0.005 0.072,-0.013 0.094,-0.023 0.023,-0.011 0.039,-0.024 0.049,-0.04 0.011,-0.015 0.016,-0.033 0.016,-0.051 l 0,-6.298 z m -3.58,0 c 0,-0.019 -0.005,-0.036 -0.014,-0.051 -0.009,-0.016 -0.025,-0.028 -0.049,-0.038 -0.024,-0.009 -0.056,-0.017 -0.094,-0.023 -0.038,-0.006 -0.084,-0.009 -0.139,-0.009 -0.063,0 -0.113,0.003 -0.151,0.009 -0.038,0.006 -0.067,0.014 -0.088,0.023 -0.021,0.01 -0.036,0.022 -0.045,0.038 -0.007,0.015 -0.012,0.032 -0.012,0.051 l 0,0.598 c -0.27,-0.271 -0.533,-0.467 -0.791,-0.588 -0.257,-0.122 -0.514,-0.183 -0.77,-0.183 -0.307,0 -0.566,0.047 -0.777,0.141 -0.212,0.092 -0.382,0.219 -0.511,0.38 -0.13,0.161 -0.224,0.347 -0.28,0.558 -0.057,0.212 -0.086,0.468 -0.086,0.767 l 0,2.555 c 0,0.019 0.005,0.036 0.014,0.051 0.007,0.016 0.024,0.029 0.048,0.04 0.024,0.011 0.056,0.019 0.096,0.024 0.04,0.005 0.089,0.006 0.149,0.006 0.061,0 0.112,-10e-4 0.152,-0.006 0.04,-0.005 0.071,-0.013 0.094,-0.024 0.022,-0.011 0.039,-0.024 0.048,-0.04 0.011,-0.015 0.016,-0.032 0.016,-0.051 l 0,-2.504 c 0,-0.261 0.023,-0.475 0.067,-0.64 0.045,-0.165 0.113,-0.306 0.203,-0.423 0.089,-0.116 0.205,-0.207 0.344,-0.271 0.141,-0.064 0.304,-0.095 0.491,-0.095 0.238,0 0.476,0.076 0.712,0.228 0.238,0.153 0.489,0.377 0.755,0.673 l 0,3.032 c 0,0.019 0.004,0.036 0.013,0.051 0.009,0.016 0.025,0.029 0.049,0.04 0.024,0.011 0.056,0.019 0.097,0.024 0.039,0.005 0.089,0.006 0.152,0.006 0.058,0 0.108,-10e-4 0.147,-0.006 0.04,-0.005 0.072,-0.013 0.094,-0.024 0.023,-0.011 0.039,-0.024 0.05,-0.04 0.01,-0.015 0.016,-0.032 0.016,-0.051 l 0,-4.228 z m -6.366,1.126 c 0,-0.202 -0.042,-0.384 -0.125,-0.544 -0.083,-0.161 -0.201,-0.297 -0.355,-0.409 -0.154,-0.113 -0.337,-0.198 -0.552,-0.257 -0.215,-0.059 -0.451,-0.089 -0.71,-0.089 -0.163,0 -0.316,0.012 -0.462,0.035 -0.145,0.024 -0.276,0.053 -0.394,0.089 -0.118,0.036 -0.217,0.074 -0.298,0.114 -0.081,0.04 -0.141,0.076 -0.179,0.108 -0.038,0.031 -0.065,0.07 -0.083,0.117 -0.018,0.047 -0.026,0.108 -0.026,0.186 0,0.04 0.004,0.077 0.01,0.108 0.007,0.031 0.016,0.057 0.027,0.08 0.01,0.021 0.023,0.038 0.041,0.049 0.017,0.01 0.036,0.016 0.057,0.016 0.039,0 0.093,-0.022 0.165,-0.065 0.074,-0.044 0.165,-0.092 0.273,-0.143 0.109,-0.051 0.238,-0.099 0.39,-0.142 0.149,-0.044 0.323,-0.066 0.52,-0.066 0.159,0 0.305,0.016 0.436,0.047 0.131,0.03 0.245,0.077 0.342,0.14 0.097,0.062 0.171,0.142 0.225,0.241 0.054,0.098 0.081,0.212 0.081,0.343 0,0.131 -0.035,0.241 -0.104,0.332 -0.069,0.09 -0.16,0.169 -0.272,0.235 -0.112,0.068 -0.24,0.126 -0.384,0.178 -0.143,0.052 -0.29,0.104 -0.441,0.159 -0.15,0.055 -0.297,0.114 -0.441,0.18 -0.143,0.065 -0.271,0.144 -0.383,0.238 -0.113,0.094 -0.203,0.205 -0.273,0.336 -0.068,0.131 -0.102,0.288 -0.102,0.473 0,0.146 0.03,0.29 0.092,0.431 0.063,0.142 0.159,0.269 0.289,0.381 0.129,0.113 0.294,0.202 0.498,0.271 0.202,0.068 0.441,0.103 0.717,0.103 0.118,0 0.235,-0.009 0.35,-0.026 0.116,-0.017 0.222,-0.039 0.316,-0.068 0.095,-0.028 0.178,-0.058 0.247,-0.09 0.069,-0.034 0.122,-0.062 0.158,-0.087 0.037,-0.025 0.06,-0.046 0.073,-0.063 0.012,-0.017 0.02,-0.035 0.025,-0.053 0.006,-0.02 0.01,-0.042 0.014,-0.069 0.003,-0.026 0.005,-0.058 0.005,-0.096 0,-0.037 -0.003,-0.07 -0.008,-0.1 -0.005,-0.029 -0.013,-0.055 -0.023,-0.076 -0.011,-0.023 -0.024,-0.039 -0.039,-0.05 -0.016,-0.011 -0.034,-0.017 -0.055,-0.017 -0.027,0 -0.069,0.018 -0.124,0.052 -0.056,0.034 -0.128,0.072 -0.218,0.112 -0.09,0.04 -0.197,0.078 -0.322,0.113 -0.124,0.034 -0.268,0.05 -0.43,0.05 -0.163,0 -0.305,-0.016 -0.428,-0.05 -0.123,-0.035 -0.223,-0.083 -0.303,-0.145 -0.079,-0.062 -0.139,-0.136 -0.179,-0.221 -0.04,-0.084 -0.06,-0.175 -0.06,-0.275 0,-0.137 0.035,-0.252 0.104,-0.346 0.069,-0.092 0.161,-0.173 0.275,-0.242 0.115,-0.069 0.243,-0.13 0.389,-0.182 0.144,-0.053 0.293,-0.106 0.443,-0.16 0.151,-0.052 0.298,-0.111 0.444,-0.174 0.145,-0.064 0.274,-0.141 0.388,-0.232 0.115,-0.091 0.206,-0.198 0.275,-0.324 0.069,-0.126 0.104,-0.278 0.104,-0.456 m -5.702,-1.126 c 0,-0.019 -0.005,-0.036 -0.016,-0.051 -0.01,-0.016 -0.026,-0.028 -0.048,-0.038 -0.024,-0.009 -0.054,-0.017 -0.094,-0.023 -0.04,-0.006 -0.089,-0.009 -0.148,-0.009 -0.062,0 -0.113,0.003 -0.153,0.009 -0.04,0.006 -0.07,0.014 -0.093,0.023 -0.023,0.01 -0.039,0.022 -0.049,0.038 -0.011,0.015 -0.016,0.032 -0.016,0.051 l 0,2.509 c 0,0.261 -0.023,0.474 -0.067,0.637 -0.045,0.164 -0.113,0.304 -0.203,0.421 -0.089,0.117 -0.205,0.207 -0.344,0.271 -0.14,0.063 -0.304,0.095 -0.491,0.095 -0.238,0 -0.476,-0.076 -0.714,-0.228 -0.24,-0.153 -0.491,-0.377 -0.752,-0.673 l 0,-3.032 c 0,-0.019 -0.006,-0.036 -0.016,-0.051 -0.011,-0.016 -0.027,-0.028 -0.05,-0.038 -0.022,-0.009 -0.054,-0.017 -0.093,-0.023 -0.04,-0.006 -0.091,-0.009 -0.153,-0.009 -0.058,0 -0.108,0.003 -0.147,0.009 -0.04,0.006 -0.073,0.014 -0.096,0.023 -0.024,0.01 -0.041,0.022 -0.05,0.038 -0.009,0.015 -0.013,0.032 -0.013,0.051 l 0,4.228 c 0,0.019 0.004,0.036 0.013,0.051 0.009,0.016 0.026,0.029 0.05,0.04 0.023,0.011 0.054,0.019 0.09,0.024 0.036,0.005 0.084,0.006 0.142,0.006 0.059,0 0.108,-10e-4 0.146,-0.006 0.038,-0.005 0.067,-0.013 0.088,-0.024 0.021,-0.011 0.036,-0.024 0.045,-0.04 0.008,-0.015 0.012,-0.032 0.012,-0.051 l 0,-0.598 c 0.27,0.271 0.535,0.468 0.793,0.589 0.26,0.121 0.517,0.182 0.773,0.182 0.307,0 0.567,-0.047 0.778,-0.14 0.21,-0.093 0.381,-0.22 0.511,-0.378 0.129,-0.16 0.223,-0.345 0.279,-0.556 0.058,-0.213 0.086,-0.468 0.086,-0.767 l 0,-2.56 z m -7.075,2.107 c 0,0.241 -0.026,0.469 -0.078,0.687 -0.052,0.218 -0.139,0.41 -0.26,0.577 -0.12,0.166 -0.283,0.299 -0.487,0.397 -0.203,0.098 -0.458,0.147 -0.762,0.147 -0.28,0 -0.522,-0.045 -0.727,-0.135 -0.203,-0.091 -0.37,-0.217 -0.5,-0.377 -0.129,-0.16 -0.225,-0.349 -0.288,-0.567 -0.061,-0.218 -0.092,-0.453 -0.092,-0.705 0,-0.243 0.026,-0.475 0.077,-0.695 0.051,-0.219 0.138,-0.411 0.259,-0.577 0.122,-0.164 0.284,-0.296 0.488,-0.392 0.204,-0.096 0.458,-0.145 0.762,-0.145 0.28,0 0.522,0.046 0.726,0.136 0.204,0.09 0.371,0.215 0.5,0.374 0.13,0.158 0.226,0.347 0.288,0.565 0.063,0.218 0.094,0.454 0.094,0.71 m 0.653,0.051 c 0,-0.336 -0.049,-0.645 -0.145,-0.93 -0.097,-0.283 -0.241,-0.529 -0.433,-0.738 -0.192,-0.208 -0.432,-0.371 -0.719,-0.488 -0.287,-0.116 -0.62,-0.175 -1.001,-0.175 -0.366,0 -0.686,0.053 -0.961,0.156 -0.275,0.105 -0.504,0.255 -0.69,0.449 -0.185,0.195 -0.323,0.431 -0.414,0.708 -0.092,0.277 -0.138,0.59 -0.138,0.939 0,0.337 0.048,0.646 0.143,0.93 0.095,0.283 0.238,0.528 0.431,0.736 0.191,0.206 0.43,0.368 0.717,0.483 0.287,0.116 0.622,0.173 1.006,0.173 0.366,0 0.687,-0.052 0.962,-0.154 0.274,-0.103 0.504,-0.252 0.688,-0.446 0.182,-0.195 0.32,-0.431 0.414,-0.708 0.093,-0.277 0.14,-0.589 0.14,-0.935 m -6.562,-1.429 c 0,-0.034 -0.002,-0.065 -0.005,-0.093 -0.004,-0.029 -0.009,-0.053 -0.016,-0.076 -0.007,-0.021 -0.016,-0.042 -0.029,-0.06 -0.012,-0.019 -0.034,-0.043 -0.066,-0.072 -0.034,-0.03 -0.106,-0.079 -0.216,-0.145 -0.111,-0.067 -0.25,-0.134 -0.417,-0.199 -0.168,-0.066 -0.361,-0.121 -0.578,-0.168 -0.218,-0.047 -0.458,-0.069 -0.721,-0.069 -0.422,0 -0.804,0.065 -1.147,0.197 -0.341,0.133 -0.632,0.327 -0.873,0.582 -0.24,0.256 -0.425,0.57 -0.555,0.944 -0.129,0.374 -0.195,0.801 -0.195,1.28 0,0.492 0.07,0.933 0.208,1.325 0.139,0.39 0.333,0.721 0.583,0.995 0.251,0.272 0.552,0.48 0.903,0.626 0.35,0.144 0.739,0.217 1.164,0.217 0.2,0 0.394,-0.017 0.583,-0.051 0.188,-0.034 0.362,-0.078 0.521,-0.131 0.159,-0.054 0.302,-0.114 0.428,-0.183 0.126,-0.068 0.213,-0.124 0.26,-0.166 0.046,-0.042 0.075,-0.072 0.088,-0.091 0.011,-0.018 0.021,-0.04 0.028,-0.063 0.007,-0.023 0.012,-0.05 0.016,-0.079 0.003,-0.03 0.004,-0.064 0.004,-0.101 0,-0.044 -0.002,-0.082 -0.007,-0.114 -0.005,-0.032 -0.014,-0.06 -0.027,-0.084 -0.011,-0.023 -0.026,-0.042 -0.043,-0.054 -0.017,-0.012 -0.038,-0.018 -0.062,-0.018 -0.049,0 -0.117,0.031 -0.205,0.096 -0.088,0.063 -0.204,0.134 -0.348,0.211 -0.143,0.079 -0.318,0.15 -0.525,0.213 -0.208,0.065 -0.455,0.096 -0.742,0.096 -0.315,0 -0.603,-0.057 -0.866,-0.17 -0.262,-0.114 -0.489,-0.281 -0.677,-0.503 -0.188,-0.221 -0.335,-0.493 -0.441,-0.817 -0.105,-0.324 -0.158,-0.697 -0.158,-1.116 0,-0.403 0.049,-0.759 0.145,-1.071 0.097,-0.311 0.237,-0.573 0.42,-0.787 0.184,-0.213 0.411,-0.376 0.68,-0.488 0.27,-0.112 0.575,-0.168 0.917,-0.168 0.28,0 0.524,0.032 0.734,0.096 0.209,0.063 0.388,0.134 0.537,0.212 0.148,0.078 0.27,0.149 0.365,0.212 0.095,0.065 0.169,0.096 0.22,0.096 0.022,0 0.039,-0.004 0.052,-0.012 0.014,-0.007 0.026,-0.021 0.034,-0.042 0.009,-0.02 0.016,-0.046 0.021,-0.081 0.005,-0.034 0.008,-0.076 0.008,-0.126 m -15.438,4.149 c 0,-0.094 0.015,-0.189 0.042,-0.285 0.028,-0.097 0.071,-0.199 0.127,-0.304 0.057,-0.106 0.129,-0.221 0.216,-0.344 0.086,-0.123 0.188,-0.259 0.305,-0.409 0.28,0.144 0.515,0.274 0.706,0.393 0.189,0.119 0.343,0.234 0.459,0.345 0.115,0.113 0.199,0.224 0.251,0.335 0.051,0.111 0.078,0.23 0.078,0.358 0,0.099 -0.021,0.195 -0.06,0.287 -0.04,0.092 -0.103,0.174 -0.189,0.245 -0.087,0.071 -0.197,0.129 -0.332,0.173 -0.135,0.043 -0.297,0.065 -0.488,0.065 -0.204,0 -0.376,-0.024 -0.515,-0.072 -0.141,-0.049 -0.255,-0.113 -0.345,-0.194 -0.091,-0.081 -0.155,-0.173 -0.194,-0.276 -0.04,-0.102 -0.061,-0.209 -0.061,-0.317 m -0.617,-3.341 c 0,-0.178 0.032,-0.339 0.097,-0.485 0.063,-0.147 0.159,-0.274 0.285,-0.381 0.126,-0.108 0.283,-0.192 0.472,-0.25 0.188,-0.06 0.405,-0.089 0.651,-0.089 0.165,0 0.323,0.016 0.474,0.047 0.15,0.031 0.294,0.073 0.432,0.128 0.139,0.054 0.269,0.119 0.39,0.194 0.12,0.074 0.233,0.155 0.337,0.242 -0.194,0.154 -0.385,0.312 -0.573,0.475 -0.189,0.164 -0.372,0.328 -0.547,0.495 -0.177,0.167 -0.346,0.333 -0.508,0.498 -0.163,0.165 -0.314,0.327 -0.451,0.485 -0.204,-0.115 -0.373,-0.227 -0.509,-0.339 -0.135,-0.11 -0.242,-0.221 -0.324,-0.333 -0.08,-0.112 -0.139,-0.224 -0.173,-0.336 -0.035,-0.113 -0.053,-0.229 -0.053,-0.351 m -0.663,-0.089 c 0,0.169 0.023,0.33 0.072,0.486 0.049,0.156 0.128,0.308 0.239,0.456 0.111,0.148 0.257,0.292 0.441,0.434 0.183,0.142 0.407,0.285 0.674,0.433 -0.146,0.18 -0.269,0.341 -0.37,0.485 -0.103,0.144 -0.186,0.275 -0.249,0.398 -0.065,0.121 -0.111,0.236 -0.138,0.345 -0.028,0.11 -0.042,0.22 -0.042,0.331 0,0.182 0.033,0.356 0.099,0.524 0.066,0.169 0.171,0.317 0.319,0.449 0.146,0.131 0.339,0.235 0.575,0.314 0.237,0.08 0.524,0.121 0.863,0.121 0.271,0 0.506,-0.031 0.708,-0.09 0.203,-0.059 0.371,-0.142 0.506,-0.247 0.135,-0.106 0.237,-0.234 0.306,-0.381 0.069,-0.148 0.103,-0.311 0.103,-0.489 0,-0.18 -0.031,-0.346 -0.095,-0.497 -0.065,-0.151 -0.168,-0.298 -0.314,-0.441 -0.145,-0.144 -0.335,-0.288 -0.568,-0.435 -0.234,-0.146 -0.52,-0.303 -0.859,-0.472 0.129,-0.143 0.269,-0.292 0.421,-0.448 0.152,-0.156 0.311,-0.312 0.477,-0.47 0.166,-0.157 0.336,-0.313 0.508,-0.467 0.173,-0.154 0.346,-0.301 0.518,-0.441 0.083,0.096 0.159,0.206 0.224,0.327 0.065,0.121 0.122,0.25 0.171,0.385 0.049,0.135 0.085,0.275 0.111,0.418 0.027,0.143 0.039,0.289 0.039,0.435 l 0,0.182 c 0,0.028 0.004,0.051 0.013,0.07 0.009,0.019 0.023,0.034 0.044,0.047 0.021,0.012 0.052,0.02 0.091,0.025 0.04,0.005 0.091,0.007 0.153,0.007 0.052,0 0.098,0 0.138,-0.002 0.039,-0.002 0.072,-0.007 0.097,-0.017 0.027,-0.008 0.046,-0.024 0.061,-0.046 0.014,-0.022 0.02,-0.053 0.02,-0.094 l 0,-0.093 c 0,-0.186 -0.018,-0.37 -0.054,-0.549 -0.036,-0.179 -0.087,-0.352 -0.151,-0.52 -0.063,-0.169 -0.142,-0.329 -0.235,-0.482 -0.094,-0.153 -0.197,-0.295 -0.312,-0.425 0.176,-0.128 0.33,-0.235 0.459,-0.32 0.13,-0.086 0.242,-0.155 0.334,-0.208 0.094,-0.054 0.17,-0.091 0.229,-0.112 0.059,-0.022 0.106,-0.033 0.144,-0.033 0.036,0 0.068,0.002 0.097,0.005 0.029,0.002 0.054,10e-4 0.072,-0.007 0.02,-0.008 0.035,-0.025 0.044,-0.051 0.011,-0.026 0.016,-0.069 0.016,-0.129 0,-0.06 -0.001,-0.107 -0.002,-0.145 -0.002,-0.038 -0.007,-0.065 -0.014,-0.084 -0.006,-0.019 -0.018,-0.035 -0.036,-0.046 -0.017,-0.013 -0.049,-0.024 -0.095,-0.034 -0.047,-0.008 -0.116,-0.013 -0.206,-0.013 -0.065,0 -0.139,0.011 -0.222,0.035 -0.083,0.023 -0.181,0.064 -0.293,0.123 -0.112,0.06 -0.244,0.139 -0.395,0.239 -0.15,0.1 -0.326,0.227 -0.526,0.383 -0.138,-0.112 -0.284,-0.216 -0.438,-0.31 -0.154,-0.096 -0.319,-0.178 -0.495,-0.249 -0.176,-0.07 -0.364,-0.125 -0.562,-0.163 -0.199,-0.039 -0.414,-0.058 -0.647,-0.058 -0.214,0 -0.414,0.016 -0.598,0.051 -0.185,0.035 -0.355,0.084 -0.508,0.149 -0.153,0.065 -0.291,0.146 -0.409,0.241 -0.12,0.095 -0.221,0.201 -0.301,0.32 -0.082,0.119 -0.145,0.25 -0.188,0.392 -0.043,0.144 -0.064,0.296 -0.064,0.458 m -5.859,-1.195 c 0,-0.066 -0.007,-0.119 -0.019,-0.159 -0.013,-0.041 -0.031,-0.073 -0.058,-0.096 -0.025,-0.024 -0.063,-0.045 -0.114,-0.066 -0.05,-0.02 -0.107,-0.037 -0.173,-0.051 -0.066,-0.014 -0.135,-0.025 -0.208,-0.033 -0.072,-0.007 -0.143,-0.011 -0.213,-0.011 -0.231,0 -0.427,0.028 -0.59,0.084 -0.163,0.055 -0.295,0.14 -0.4,0.255 -0.103,0.113 -0.179,0.256 -0.224,0.431 -0.047,0.175 -0.071,0.38 -0.071,0.617 l 0,2.63 -0.7,0 c -0.048,0 -0.086,0.02 -0.114,0.059 -0.028,0.038 -0.041,0.097 -0.041,0.175 0,0.041 0.003,0.076 0.01,0.105 0.006,0.03 0.017,0.055 0.031,0.074 0.013,0.021 0.03,0.036 0.05,0.045 0.018,0.009 0.04,0.014 0.064,0.014 l 0.7,0 0,1.037 c 0,0.019 0.004,0.036 0.013,0.052 0.009,0.016 0.025,0.028 0.05,0.04 0.023,0.011 0.055,0.019 0.095,0.023 0.04,0.004 0.089,0.007 0.148,0.007 0.062,0 0.113,-0.003 0.153,-0.007 0.039,-0.004 0.071,-0.012 0.093,-0.023 0.022,-0.012 0.039,-0.024 0.05,-0.04 0.01,-0.016 0.015,-0.033 0.015,-0.052 l 0,-1.037 1.296,0 c 0.025,0 0.046,-0.005 0.065,-0.014 0.019,-0.009 0.036,-0.024 0.05,-0.045 0.013,-0.019 0.023,-0.044 0.031,-0.074 0.007,-0.029 0.011,-0.064 0.011,-0.105 0,-0.078 -0.016,-0.137 -0.045,-0.175 -0.03,-0.039 -0.067,-0.059 -0.112,-0.059 l -1.296,0 0,-2.555 c 0,-0.321 0.051,-0.566 0.153,-0.734 0.102,-0.168 0.288,-0.252 0.557,-0.252 0.083,0 0.159,0.008 0.226,0.024 0.067,0.015 0.127,0.032 0.179,0.051 0.052,0.018 0.095,0.036 0.132,0.051 0.037,0.016 0.069,0.024 0.096,0.024 0.018,0 0.033,-0.004 0.047,-0.01 0.014,-0.006 0.025,-0.018 0.033,-0.035 0.009,-0.017 0.016,-0.039 0.022,-0.066 0.005,-0.026 0.008,-0.059 0.008,-0.099 m -5.101,-0.253 c 0,-0.019 -0.005,-0.036 -0.016,-0.051 -0.009,-0.016 -0.026,-0.028 -0.048,-0.038 -0.023,-0.009 -0.054,-0.017 -0.094,-0.023 -0.04,-0.006 -0.089,-0.009 -0.148,-0.009 -0.062,0 -0.113,0.003 -0.153,0.009 -0.039,0.006 -0.07,0.014 -0.093,0.023 -0.022,0.01 -0.039,0.022 -0.05,0.038 -0.009,0.015 -0.015,0.032 -0.015,0.051 l 0,2.509 c 0,0.261 -0.023,0.474 -0.068,0.637 -0.044,0.164 -0.112,0.304 -0.202,0.421 -0.09,0.117 -0.204,0.207 -0.344,0.271 -0.14,0.063 -0.304,0.095 -0.491,0.095 -0.238,0 -0.476,-0.076 -0.715,-0.228 -0.238,-0.153 -0.49,-0.377 -0.751,-0.673 l 0,-3.032 c 0,-0.019 -0.005,-0.036 -0.016,-0.051 -0.011,-0.016 -0.027,-0.028 -0.05,-0.038 -0.022,-0.009 -0.054,-0.017 -0.093,-0.023 -0.04,-0.006 -0.09,-0.009 -0.153,-0.009 -0.059,0 -0.108,0.003 -0.147,0.009 -0.04,0.006 -0.073,0.014 -0.096,0.023 -0.025,0.01 -0.041,0.022 -0.05,0.038 -0.009,0.015 -0.013,0.032 -0.013,0.051 l 0,4.228 c 0,0.019 0.004,0.036 0.013,0.051 0.009,0.016 0.025,0.029 0.05,0.04 0.023,0.011 0.054,0.019 0.09,0.024 0.037,0.005 0.084,0.006 0.143,0.006 0.058,0 0.107,-10e-4 0.145,-0.006 0.038,-0.005 0.067,-0.013 0.089,-0.024 0.02,-0.011 0.035,-0.024 0.044,-0.04 0.008,-0.015 0.012,-0.032 0.012,-0.051 l 0,-0.598 c 0.27,0.271 0.534,0.468 0.793,0.589 0.26,0.121 0.517,0.182 0.773,0.182 0.308,0 0.567,-0.047 0.778,-0.14 0.211,-0.093 0.381,-0.22 0.511,-0.378 0.13,-0.16 0.222,-0.345 0.279,-0.556 0.058,-0.213 0.086,-0.468 0.086,-0.767 l 0,-2.56 z m -7.096,2.495 c 0.01,0.448 -0.104,0.799 -0.342,1.051 -0.239,0.253 -0.586,0.379 -1.042,0.379 -0.236,0 -0.442,-0.04 -0.621,-0.119 -0.177,-0.08 -0.328,-0.185 -0.451,-0.316 -0.122,-0.131 -0.217,-0.283 -0.282,-0.456 -0.065,-0.172 -0.103,-0.352 -0.114,-0.539 l 2.852,0 z m 0.638,-0.163 c 0,-0.112 -0.033,-0.19 -0.099,-0.232 -0.066,-0.042 -0.13,-0.063 -0.192,-0.063 l -3.199,0 c 0,-0.262 0.028,-0.498 0.086,-0.71 0.056,-0.212 0.151,-0.394 0.282,-0.544 0.132,-0.151 0.303,-0.268 0.514,-0.349 0.211,-0.081 0.469,-0.121 0.777,-0.121 0.218,0 0.413,0.017 0.586,0.051 0.173,0.034 0.322,0.072 0.449,0.114 0.126,0.043 0.23,0.081 0.311,0.116 0.081,0.034 0.139,0.051 0.173,0.051 0.021,0 0.041,-0.005 0.058,-0.014 0.017,-0.009 0.031,-0.025 0.041,-0.044 0.01,-0.021 0.018,-0.047 0.024,-0.077 0.004,-0.032 0.007,-0.071 0.007,-0.118 0,-0.021 -0.002,-0.043 -0.006,-0.062 -0.002,-0.021 -0.007,-0.039 -0.012,-0.057 -0.005,-0.016 -0.013,-0.033 -0.023,-0.049 -0.01,-0.015 -0.024,-0.031 -0.042,-0.046 -0.017,-0.016 -0.071,-0.043 -0.161,-0.082 -0.09,-0.039 -0.207,-0.079 -0.352,-0.117 -0.146,-0.039 -0.314,-0.074 -0.506,-0.105 -0.192,-0.031 -0.398,-0.047 -0.619,-0.047 -0.364,0 -0.685,0.05 -0.965,0.147 -0.279,0.098 -0.515,0.244 -0.705,0.435 -0.19,0.191 -0.334,0.429 -0.433,0.713 -0.098,0.282 -0.147,0.611 -0.147,0.985 0,0.359 0.05,0.679 0.152,0.962 0.103,0.284 0.248,0.525 0.438,0.722 0.191,0.198 0.419,0.349 0.687,0.453 0.269,0.104 0.566,0.157 0.895,0.157 0.353,0 0.654,-0.053 0.902,-0.159 0.249,-0.105 0.454,-0.248 0.614,-0.428 0.161,-0.178 0.278,-0.386 0.353,-0.623 0.075,-0.237 0.112,-0.486 0.112,-0.748 l 0,-0.111 z m -6.77,-2.332 c 0,-0.019 -0.005,-0.036 -0.015,-0.051 -0.011,-0.016 -0.028,-0.028 -0.05,-0.038 -0.022,-0.009 -0.053,-0.017 -0.093,-0.023 -0.04,-0.006 -0.089,-0.009 -0.148,-0.009 -0.062,0 -0.112,0.003 -0.153,0.009 -0.04,0.006 -0.072,0.014 -0.095,0.023 -0.025,0.01 -0.041,0.022 -0.05,0.038 -0.009,0.015 -0.013,0.032 -0.013,0.051 l 0,2.602 c 0,0.2 -0.02,0.381 -0.059,0.544 -0.04,0.164 -0.103,0.304 -0.187,0.421 -0.085,0.117 -0.192,0.207 -0.321,0.271 -0.13,0.063 -0.283,0.095 -0.46,0.095 -0.217,0 -0.438,-0.076 -0.66,-0.228 -0.223,-0.153 -0.468,-0.377 -0.735,-0.673 l 0,-3.032 c 0,-0.019 -0.004,-0.036 -0.015,-0.051 -0.01,-0.016 -0.027,-0.028 -0.049,-0.038 -0.023,-0.009 -0.054,-0.017 -0.094,-0.023 -0.039,-0.006 -0.089,-0.009 -0.147,-0.009 -0.059,0 -0.109,0.003 -0.148,0.009 -0.04,0.006 -0.072,0.014 -0.096,0.023 -0.025,0.01 -0.04,0.022 -0.049,0.038 -0.009,0.015 -0.013,0.032 -0.013,0.051 l 0,2.602 c 0,0.2 -0.02,0.381 -0.062,0.544 -0.041,0.164 -0.105,0.304 -0.19,0.421 -0.084,0.117 -0.191,0.207 -0.321,0.271 -0.13,0.063 -0.282,0.095 -0.459,0.095 -0.218,0 -0.438,-0.076 -0.661,-0.228 -0.223,-0.153 -0.466,-0.377 -0.728,-0.673 l 0,-3.032 c 0,-0.019 -0.006,-0.036 -0.016,-0.051 -0.01,-0.016 -0.027,-0.028 -0.049,-0.038 -0.023,-0.009 -0.054,-0.017 -0.094,-0.023 -0.04,-0.006 -0.091,-0.009 -0.152,-0.009 -0.059,0 -0.109,0.003 -0.149,0.009 -0.039,0.006 -0.072,0.014 -0.095,0.023 -0.024,0.01 -0.041,0.022 -0.05,0.038 -0.008,0.015 -0.012,0.032 -0.012,0.051 l 0,4.228 c 0,0.019 0.004,0.036 0.012,0.051 0.009,0.016 0.026,0.029 0.05,0.04 0.023,0.011 0.054,0.019 0.09,0.024 0.036,0.005 0.084,0.006 0.143,0.006 0.059,0 0.107,-10e-4 0.145,-0.006 0.038,-0.005 0.067,-0.013 0.088,-0.024 0.021,-0.011 0.036,-0.024 0.044,-0.04 0.009,-0.015 0.013,-0.032 0.013,-0.051 l 0,-0.598 c 0.27,0.271 0.526,0.468 0.768,0.589 0.242,0.121 0.482,0.182 0.72,0.182 0.197,0 0.373,-0.021 0.527,-0.063 0.154,-0.042 0.289,-0.102 0.407,-0.178 0.117,-0.076 0.218,-0.167 0.301,-0.273 0.083,-0.106 0.15,-0.223 0.202,-0.351 0.162,0.163 0.315,0.299 0.459,0.409 0.143,0.111 0.279,0.2 0.409,0.267 0.13,0.066 0.255,0.115 0.376,0.144 0.121,0.03 0.24,0.045 0.358,0.045 0.294,0 0.541,-0.047 0.743,-0.14 0.204,-0.093 0.366,-0.22 0.488,-0.378 0.123,-0.16 0.212,-0.345 0.265,-0.556 0.053,-0.213 0.08,-0.437 0.08,-0.673 l 0,-2.654 z m -9.99,2.089 c 0,0.236 -0.021,0.465 -0.062,0.683 -0.041,0.22 -0.112,0.415 -0.21,0.587 -0.098,0.171 -0.23,0.309 -0.394,0.411 -0.164,0.103 -0.371,0.155 -0.62,0.155 -0.124,0 -0.246,-0.016 -0.365,-0.047 -0.119,-0.031 -0.241,-0.083 -0.366,-0.155 -0.124,-0.071 -0.254,-0.164 -0.389,-0.278 -0.135,-0.113 -0.276,-0.254 -0.425,-0.423 l 0,-1.84 c 0.259,-0.284 0.508,-0.5 0.744,-0.652 0.237,-0.151 0.485,-0.226 0.744,-0.226 0.239,0 0.443,0.052 0.615,0.156 0.171,0.104 0.31,0.242 0.417,0.411 0.107,0.17 0.186,0.361 0.236,0.575 0.05,0.213 0.075,0.428 0.075,0.643 m 0.649,0.088 c 0,-0.362 -0.045,-0.686 -0.133,-0.976 -0.088,-0.29 -0.217,-0.536 -0.389,-0.738 -0.171,-0.202 -0.383,-0.36 -0.635,-0.47 -0.252,-0.11 -0.541,-0.166 -0.866,-0.166 -0.138,0 -0.268,0.014 -0.388,0.04 -0.122,0.026 -0.24,0.067 -0.356,0.124 -0.116,0.056 -0.231,0.126 -0.348,0.21 -0.115,0.084 -0.237,0.186 -0.365,0.304 l 0,-2.182 c 0,-0.019 -0.005,-0.036 -0.015,-0.052 -0.011,-0.015 -0.027,-0.028 -0.05,-0.04 -0.022,-0.01 -0.053,-0.018 -0.093,-0.022 -0.04,-0.005 -0.091,-0.008 -0.153,-0.008 -0.059,0 -0.108,0.003 -0.148,0.008 -0.04,0.004 -0.072,0.012 -0.096,0.022 -0.024,0.012 -0.04,0.025 -0.049,0.04 -0.009,0.016 -0.013,0.033 -0.013,0.052 l 0,5.905 c 0,0.022 0.004,0.04 0.013,0.056 0.009,0.016 0.025,0.028 0.047,0.037 0.022,0.01 0.051,0.017 0.088,0.022 0.036,0.005 0.08,0.006 0.132,0.006 0.052,0 0.095,-10e-4 0.13,-0.006 0.034,-0.005 0.064,-0.012 0.088,-0.022 0.024,-0.009 0.042,-0.021 0.052,-0.037 0.01,-0.016 0.015,-0.034 0.015,-0.056 l 0,-0.612 c 0.145,0.134 0.284,0.25 0.415,0.348 0.131,0.098 0.263,0.18 0.394,0.246 0.131,0.064 0.267,0.113 0.404,0.144 0.139,0.031 0.285,0.047 0.441,0.047 0.339,0 0.628,-0.058 0.866,-0.176 0.239,-0.116 0.433,-0.276 0.583,-0.478 0.151,-0.203 0.26,-0.439 0.327,-0.708 0.067,-0.269 0.102,-0.557 0.102,-0.862 m -7.367,-0.07 c 0,0.241 -0.025,0.469 -0.078,0.687 -0.051,0.218 -0.137,0.41 -0.258,0.577 -0.122,0.166 -0.284,0.299 -0.488,0.397 -0.204,0.098 -0.458,0.147 -0.762,0.147 -0.28,0 -0.522,-0.045 -0.727,-0.135 -0.203,-0.091 -0.37,-0.217 -0.5,-0.377 -0.129,-0.16 -0.225,-0.349 -0.288,-0.567 -0.061,-0.218 -0.092,-0.453 -0.092,-0.705 0,-0.243 0.025,-0.475 0.077,-0.695 0.052,-0.219 0.138,-0.411 0.259,-0.577 0.122,-0.164 0.284,-0.296 0.488,-0.392 0.204,-0.096 0.458,-0.145 0.762,-0.145 0.28,0 0.522,0.046 0.726,0.136 0.204,0.09 0.371,0.215 0.5,0.374 0.13,0.158 0.226,0.347 0.288,0.565 0.062,0.218 0.093,0.454 0.093,0.71 m 0.654,0.051 c 0,-0.336 -0.049,-0.645 -0.145,-0.93 -0.097,-0.283 -0.241,-0.529 -0.433,-0.738 -0.192,-0.208 -0.431,-0.371 -0.719,-0.488 -0.287,-0.116 -0.62,-0.175 -1,-0.175 -0.367,0 -0.687,0.053 -0.962,0.156 -0.275,0.105 -0.505,0.255 -0.69,0.449 -0.185,0.195 -0.323,0.431 -0.415,0.708 -0.091,0.277 -0.137,0.59 -0.137,0.939 0,0.337 0.048,0.646 0.143,0.93 0.095,0.283 0.238,0.528 0.43,0.736 0.192,0.206 0.431,0.368 0.718,0.483 0.287,0.116 0.622,0.173 1.006,0.173 0.366,0 0.687,-0.052 0.962,-0.154 0.274,-0.103 0.503,-0.252 0.687,-0.446 0.183,-0.195 0.321,-0.431 0.415,-0.708 0.093,-0.277 0.14,-0.589 0.14,-0.935 m -7.112,-2.158 c 0,-0.019 -0.005,-0.036 -0.015,-0.051 -0.01,-0.016 -0.027,-0.028 -0.049,-0.038 -0.023,-0.009 -0.054,-0.017 -0.094,-0.023 -0.04,-0.006 -0.091,-0.009 -0.153,-0.009 -0.059,0 -0.108,0.003 -0.148,0.009 -0.04,0.006 -0.072,0.014 -0.095,0.023 -0.025,0.01 -0.041,0.022 -0.05,0.038 -0.008,0.015 -0.013,0.032 -0.013,0.051 l 0,6.298 c 0,0.018 0.005,0.036 0.013,0.051 0.009,0.016 0.025,0.029 0.05,0.04 0.023,0.01 0.055,0.018 0.095,0.023 0.04,0.005 0.089,0.007 0.148,0.007 0.062,0 0.113,-0.002 0.153,-0.007 0.04,-0.005 0.071,-0.013 0.094,-0.023 0.022,-0.011 0.039,-0.024 0.049,-0.04 0.01,-0.015 0.015,-0.033 0.015,-0.051 l 0,-6.298 z m -3.908,2.495 c 0.011,0.448 -0.103,0.799 -0.342,1.051 -0.238,0.253 -0.585,0.379 -1.042,0.379 -0.235,0 -0.441,-0.04 -0.62,-0.119 -0.178,-0.08 -0.328,-0.185 -0.451,-0.316 -0.122,-0.131 -0.217,-0.283 -0.283,-0.456 -0.065,-0.172 -0.103,-0.352 -0.113,-0.539 l 2.851,0 z m 0.638,-0.163 c 0,-0.112 -0.033,-0.19 -0.098,-0.232 -0.066,-0.042 -0.13,-0.063 -0.192,-0.063 l -3.199,0 c 0,-0.262 0.028,-0.498 0.085,-0.71 0.057,-0.212 0.152,-0.394 0.283,-0.544 0.131,-0.151 0.302,-0.268 0.513,-0.349 0.21,-0.081 0.47,-0.121 0.778,-0.121 0.218,0 0.413,0.017 0.586,0.051 0.173,0.034 0.322,0.072 0.449,0.114 0.126,0.043 0.229,0.081 0.311,0.116 0.081,0.034 0.139,0.051 0.173,0.051 0.021,0 0.04,-0.005 0.057,-0.014 0.018,-0.009 0.031,-0.025 0.042,-0.044 0.01,-0.021 0.018,-0.047 0.023,-0.077 0.005,-0.032 0.007,-0.071 0.007,-0.118 0,-0.021 -10e-4,-0.043 -0.005,-0.062 -0.003,-0.021 -0.007,-0.039 -0.013,-0.057 -0.004,-0.016 -0.012,-0.033 -0.023,-0.049 -0.01,-0.015 -0.024,-0.031 -0.041,-0.046 -0.017,-0.016 -0.071,-0.043 -0.161,-0.082 -0.09,-0.039 -0.207,-0.079 -0.352,-0.117 -0.146,-0.039 -0.314,-0.074 -0.506,-0.105 -0.192,-0.031 -0.399,-0.047 -0.62,-0.047 -0.363,0 -0.684,0.05 -0.964,0.147 -0.281,0.098 -0.515,0.244 -0.705,0.435 -0.19,0.191 -0.335,0.429 -0.433,0.713 -0.099,0.282 -0.148,0.611 -0.148,0.985 0,0.359 0.051,0.679 0.152,0.962 0.103,0.284 0.249,0.525 0.439,0.722 0.19,0.198 0.419,0.349 0.687,0.453 0.268,0.104 0.566,0.157 0.894,0.157 0.353,0 0.654,-0.053 0.903,-0.159 0.249,-0.105 0.453,-0.248 0.614,-0.428 0.161,-0.178 0.278,-0.386 0.353,-0.623 0.074,-0.237 0.111,-0.486 0.111,-0.748 l 0,-0.111 z m -6.033,1.905 c 0,-0.009 -10e-4,-0.019 -0.002,-0.03 -0.003,-0.011 -0.004,-0.021 -0.006,-0.03 -0.001,-0.009 -0.004,-0.02 -0.007,-0.031 -0.004,-0.01 -0.007,-0.02 -0.011,-0.03 l -1.7,-4.116 c -0.011,-0.025 -0.027,-0.045 -0.047,-0.061 -0.021,-0.015 -0.047,-0.028 -0.078,-0.037 -0.031,-0.01 -0.068,-0.015 -0.111,-0.018 -0.044,-0.003 -0.095,-0.005 -0.153,-0.005 -0.06,0 -0.111,0.002 -0.156,0.007 -0.045,0.004 -0.083,0.011 -0.114,0.021 -0.031,0.009 -0.057,0.022 -0.078,0.037 -0.021,0.016 -0.036,0.034 -0.047,0.056 l -1.7,4.116 c -0.01,0.025 -0.018,0.045 -0.024,0.061 -0.005,0.015 -0.008,0.028 -0.01,0.037 -0.002,0.009 -0.003,0.017 -0.003,0.023 0,0.023 0.006,0.041 0.016,0.057 0.011,0.015 0.027,0.026 0.049,0.034 0.023,0.008 0.053,0.014 0.091,0.017 0.038,0.003 0.084,0.004 0.14,0.004 0.076,0 0.137,-10e-4 0.181,-0.006 0.045,-0.005 0.081,-0.012 0.107,-0.022 0.026,-0.009 0.045,-0.021 0.057,-0.037 0.012,-0.016 0.023,-0.034 0.033,-0.056 l 1.468,-3.691 0.01,-0.023 0.011,0.023 1.441,3.691 c 0.007,0.022 0.017,0.04 0.031,0.056 0.014,0.016 0.034,0.028 0.06,0.037 0.026,0.01 0.06,0.017 0.103,0.022 0.044,0.005 0.1,0.006 0.169,0.006 0.055,0 0.101,-10e-4 0.138,-0.004 0.036,-0.003 0.065,-0.009 0.085,-0.019 0.021,-0.01 0.036,-0.02 0.045,-0.035 0.007,-0.014 0.012,-0.031 0.012,-0.054 m -6.832,-1.742 c 0.01,0.448 -0.104,0.799 -0.343,1.051 -0.238,0.253 -0.585,0.379 -1.042,0.379 -0.234,0 -0.441,-0.04 -0.619,-0.119 -0.178,-0.08 -0.328,-0.185 -0.451,-0.316 -0.123,-0.131 -0.217,-0.283 -0.283,-0.456 -0.066,-0.172 -0.103,-0.352 -0.114,-0.539 l 2.852,0 z m 0.638,-0.163 c 0,-0.112 -0.033,-0.19 -0.099,-0.232 -0.066,-0.042 -0.129,-0.063 -0.192,-0.063 l -3.199,0 c 0,-0.262 0.028,-0.498 0.086,-0.71 0.057,-0.212 0.151,-0.394 0.282,-0.544 0.132,-0.151 0.303,-0.268 0.513,-0.349 0.211,-0.081 0.47,-0.121 0.778,-0.121 0.218,0 0.413,0.017 0.586,0.051 0.173,0.034 0.323,0.072 0.449,0.114 0.126,0.043 0.23,0.081 0.311,0.116 0.081,0.034 0.139,0.051 0.174,0.051 0.02,0 0.039,-0.005 0.057,-0.014 0.017,-0.009 0.031,-0.025 0.041,-0.044 0.01,-0.021 0.018,-0.047 0.023,-0.077 0.005,-0.032 0.008,-0.071 0.008,-0.118 0,-0.021 -0.002,-0.043 -0.005,-0.062 -0.004,-0.021 -0.008,-0.039 -0.013,-0.057 -0.005,-0.016 -0.013,-0.033 -0.023,-0.049 -0.011,-0.015 -0.024,-0.031 -0.042,-0.046 -0.017,-0.016 -0.071,-0.043 -0.16,-0.082 -0.09,-0.039 -0.208,-0.079 -0.353,-0.117 -0.145,-0.039 -0.314,-0.074 -0.506,-0.105 -0.192,-0.031 -0.398,-0.047 -0.619,-0.047 -0.363,0 -0.685,0.05 -0.965,0.147 -0.28,0.098 -0.515,0.244 -0.705,0.435 -0.19,0.191 -0.334,0.429 -0.433,0.713 -0.098,0.282 -0.147,0.611 -0.147,0.985 0,0.359 0.05,0.679 0.152,0.962 0.102,0.284 0.248,0.525 0.438,0.722 0.19,0.198 0.419,0.349 0.687,0.453 0.268,0.104 0.566,0.157 0.895,0.157 0.352,0 0.653,-0.053 0.902,-0.159 0.249,-0.105 0.454,-0.248 0.615,-0.428 0.161,-0.178 0.278,-0.386 0.352,-0.623 0.075,-0.237 0.112,-0.486 0.112,-0.748 l 0,-0.111 z m -7.138,0.658 c 0,0.352 -0.05,0.678 -0.148,0.979 -0.098,0.3 -0.25,0.56 -0.456,0.778 -0.206,0.218 -0.466,0.389 -0.781,0.511 -0.314,0.124 -0.715,0.185 -1.203,0.185 l -1.031,0 0,-5.027 1.037,0 c 0.456,0 0.842,0.051 1.158,0.151 0.317,0.102 0.58,0.258 0.791,0.47 0.211,0.212 0.37,0.479 0.475,0.802 0.105,0.322 0.158,0.706 0.158,1.151 m 0.679,0.028 c 0,-0.507 -0.071,-0.956 -0.213,-1.343 -0.142,-0.388 -0.351,-0.712 -0.627,-0.974 -0.276,-0.262 -0.618,-0.459 -1.024,-0.594 -0.406,-0.134 -0.891,-0.2 -1.454,-0.2 l -1.323,0 c -0.062,0 -0.126,0.021 -0.192,0.063 -0.066,0.042 -0.098,0.119 -0.098,0.231 l 0,5.456 c 0,0.112 0.032,0.191 0.098,0.233 0.066,0.042 0.13,0.062 0.192,0.062 l 1.41,0 c 0.571,0 1.052,-0.07 1.445,-0.21 0.392,-0.141 0.72,-0.339 0.985,-0.596 0.264,-0.256 0.464,-0.565 0.599,-0.924 0.135,-0.361 0.202,-0.762 0.202,-1.204 m -11.968,-0.523 c 0.01,0.448 -0.103,0.799 -0.342,1.051 -0.238,0.253 -0.586,0.379 -1.042,0.379 -0.235,0 -0.442,-0.04 -0.62,-0.119 -0.178,-0.08 -0.328,-0.185 -0.451,-0.316 -0.123,-0.131 -0.217,-0.283 -0.283,-0.456 -0.065,-0.172 -0.103,-0.352 -0.114,-0.539 l 2.852,0 z m 0.638,-0.163 c 0,-0.112 -0.033,-0.19 -0.099,-0.232 -0.065,-0.042 -0.129,-0.063 -0.191,-0.063 l -3.2,0 c 0,-0.262 0.029,-0.498 0.086,-0.71 0.057,-0.212 0.151,-0.394 0.282,-0.544 0.132,-0.151 0.303,-0.268 0.514,-0.349 0.211,-0.081 0.47,-0.121 0.778,-0.121 0.217,0 0.413,0.017 0.586,0.051 0.172,0.034 0.322,0.072 0.448,0.114 0.126,0.043 0.23,0.081 0.311,0.116 0.081,0.034 0.139,0.051 0.174,0.051 0.021,0 0.039,-0.005 0.057,-0.014 0.017,-0.009 0.031,-0.025 0.041,-0.044 0.011,-0.021 0.018,-0.047 0.024,-0.077 0.005,-0.032 0.008,-0.071 0.008,-0.118 0,-0.021 -0.002,-0.043 -0.006,-0.062 -0.003,-0.021 -0.008,-0.039 -0.013,-0.057 -0.005,-0.016 -0.013,-0.033 -0.023,-0.049 -0.011,-0.015 -0.024,-0.031 -0.042,-0.046 -0.017,-0.016 -0.07,-0.043 -0.16,-0.082 -0.09,-0.039 -0.207,-0.079 -0.353,-0.117 -0.145,-0.039 -0.313,-0.074 -0.505,-0.105 -0.192,-0.031 -0.399,-0.047 -0.62,-0.047 -0.363,0 -0.685,0.05 -0.964,0.147 -0.28,0.098 -0.515,0.244 -0.705,0.435 -0.191,0.191 -0.335,0.429 -0.434,0.713 -0.098,0.282 -0.147,0.611 -0.147,0.985 0,0.359 0.051,0.679 0.153,0.962 0.101,0.284 0.247,0.525 0.438,0.722 0.19,0.198 0.419,0.349 0.687,0.453 0.267,0.104 0.566,0.157 0.894,0.157 0.353,0 0.654,-0.053 0.902,-0.159 0.249,-0.105 0.454,-0.248 0.615,-0.428 0.161,-0.178 0.278,-0.386 0.353,-0.623 0.074,-0.237 0.111,-0.486 0.111,-0.748 l 0,-0.111 z m -5.961,1.682 c 0,-0.047 -0.002,-0.087 -0.005,-0.121 -0.003,-0.032 -0.01,-0.058 -0.018,-0.079 -0.009,-0.019 -0.019,-0.035 -0.031,-0.046 -0.013,-0.011 -0.029,-0.016 -0.05,-0.016 -0.031,0 -0.067,0.007 -0.109,0.02 -0.041,0.015 -0.089,0.03 -0.145,0.045 -0.055,0.016 -0.115,0.031 -0.181,0.044 -0.066,0.014 -0.138,0.022 -0.218,0.022 -0.093,0 -0.185,-0.019 -0.275,-0.054 -0.09,-0.036 -0.184,-0.094 -0.282,-0.173 -0.099,-0.08 -0.202,-0.184 -0.312,-0.315 -0.108,-0.131 -0.229,-0.292 -0.36,-0.482 l 0,-2.859 c 0,-0.019 -0.005,-0.036 -0.016,-0.051 -0.01,-0.016 -0.026,-0.028 -0.048,-0.038 -0.023,-0.009 -0.054,-0.017 -0.094,-0.023 -0.04,-0.006 -0.09,-0.009 -0.153,-0.009 -0.059,0 -0.108,0.003 -0.148,0.009 -0.039,0.006 -0.071,0.014 -0.096,0.023 -0.024,0.01 -0.04,0.022 -0.049,0.038 -0.009,0.015 -0.013,0.032 -0.013,0.051 l 0,4.228 c 0,0.019 0.004,0.036 0.013,0.051 0.009,0.016 0.025,0.029 0.049,0.04 0.025,0.011 0.055,0.019 0.091,0.024 0.036,0.005 0.084,0.006 0.143,0.006 0.058,0 0.107,-10e-4 0.145,-0.006 0.038,-0.005 0.067,-0.013 0.088,-0.024 0.021,-0.011 0.035,-0.024 0.044,-0.04 0.009,-0.015 0.013,-0.032 0.013,-0.051 l 0,-0.669 c 0.135,0.179 0.259,0.322 0.373,0.431 0.115,0.108 0.223,0.193 0.327,0.254 0.104,0.062 0.205,0.103 0.304,0.124 0.098,0.022 0.199,0.033 0.303,0.033 0.045,0 0.097,-0.003 0.156,-0.008 0.058,-0.003 0.121,-0.012 0.189,-0.025 0.067,-0.013 0.128,-0.027 0.181,-0.044 0.054,-0.017 0.091,-0.033 0.112,-0.047 0.02,-0.013 0.034,-0.026 0.041,-0.037 0.007,-0.011 0.013,-0.025 0.018,-0.042 0.006,-0.017 0.009,-0.041 0.011,-0.07 0.001,-0.03 0.002,-0.068 0.002,-0.114 m -6.163,-2.019 -0.855,0 c -0.249,0 -0.466,-0.021 -0.653,-0.061 -0.187,-0.041 -0.343,-0.099 -0.467,-0.177 -0.125,-0.078 -0.217,-0.171 -0.278,-0.281 -0.06,-0.109 -0.09,-0.233 -0.09,-0.374 0,-0.243 0.085,-0.436 0.256,-0.581 0.171,-0.145 0.412,-0.217 0.724,-0.217 0.245,0 0.474,0.056 0.687,0.17 0.212,0.114 0.438,0.29 0.676,0.526 l 0,0.995 z m 0.617,-1.995 c 0,-0.031 -0.011,-0.055 -0.033,-0.072 -0.023,-0.017 -0.052,-0.03 -0.089,-0.038 -0.036,-0.007 -0.085,-0.011 -0.147,-0.011 -0.059,0 -0.109,0.004 -0.15,0.011 -0.042,0.008 -0.074,0.021 -0.097,0.038 -0.022,0.017 -0.033,0.041 -0.033,0.072 l 0,0.472 c -0.211,-0.206 -0.444,-0.365 -0.698,-0.477 -0.254,-0.111 -0.517,-0.168 -0.791,-0.168 -0.245,0 -0.465,0.029 -0.66,0.087 -0.196,0.058 -0.361,0.14 -0.495,0.247 -0.136,0.107 -0.239,0.237 -0.312,0.391 -0.072,0.152 -0.109,0.323 -0.109,0.513 0,0.234 0.054,0.437 0.161,0.61 0.107,0.173 0.26,0.317 0.456,0.432 0.198,0.116 0.434,0.201 0.711,0.26 0.276,0.057 0.584,0.086 0.923,0.086 l 0.746,0 0,0.364 c 0,0.181 -0.02,0.34 -0.062,0.479 -0.041,0.138 -0.109,0.255 -0.202,0.348 -0.093,0.094 -0.214,0.163 -0.363,0.21 -0.149,0.047 -0.33,0.071 -0.544,0.071 -0.208,0 -0.395,-0.024 -0.56,-0.069 -0.166,-0.045 -0.312,-0.095 -0.436,-0.151 -0.124,-0.056 -0.227,-0.107 -0.308,-0.152 -0.082,-0.045 -0.139,-0.068 -0.174,-0.068 -0.021,0 -0.04,0.003 -0.057,0.009 -0.017,0.007 -0.032,0.019 -0.044,0.035 -0.012,0.018 -0.021,0.039 -0.027,0.066 -0.004,0.026 -0.007,0.058 -0.007,0.096 0,0.066 0.005,0.117 0.015,0.157 0.011,0.039 0.038,0.077 0.081,0.116 0.043,0.039 0.12,0.085 0.231,0.138 0.11,0.053 0.237,0.102 0.381,0.147 0.143,0.045 0.298,0.082 0.464,0.109 0.166,0.029 0.332,0.043 0.498,0.043 0.321,0 0.592,-0.035 0.814,-0.105 0.221,-0.071 0.4,-0.17 0.536,-0.302 0.137,-0.131 0.235,-0.291 0.293,-0.483 0.059,-0.192 0.088,-0.409 0.088,-0.652 l 0,-2.859 z m -5.582,4.237 c 0,-0.015 -0.002,-0.033 -0.007,-0.054 -0.006,-0.019 -0.012,-0.042 -0.018,-0.067 l -1.453,-4.116 c -0.006,-0.025 -0.019,-0.045 -0.038,-0.061 -0.019,-0.015 -0.045,-0.028 -0.075,-0.037 -0.032,-0.01 -0.072,-0.015 -0.122,-0.018 -0.051,-0.003 -0.11,-0.005 -0.179,-0.005 -0.073,0 -0.135,0.002 -0.187,0.007 -0.052,0.004 -0.094,0.011 -0.127,0.021 -0.033,0.009 -0.059,0.022 -0.078,0.037 -0.019,0.016 -0.032,0.034 -0.039,0.056 l -1.089,3.336 -0.01,0.037 -0.01,-0.037 -1.016,-3.336 c -0.008,-0.025 -0.021,-0.045 -0.042,-0.061 -0.021,-0.015 -0.05,-0.028 -0.086,-0.037 -0.036,-0.01 -0.08,-0.015 -0.132,-0.018 -0.052,-0.003 -0.11,-0.005 -0.176,-0.005 -0.069,0 -0.128,0.002 -0.177,0.007 -0.048,0.004 -0.088,0.011 -0.121,0.021 -0.033,0.009 -0.058,0.022 -0.075,0.037 -0.018,0.016 -0.03,0.034 -0.037,0.056 l -1.441,4.116 c -0.011,0.022 -0.018,0.044 -0.023,0.066 -0.006,0.021 -0.008,0.04 -0.008,0.055 0,0.023 0.005,0.041 0.015,0.057 0.01,0.015 0.028,0.026 0.052,0.034 0.024,0.008 0.055,0.014 0.093,0.017 0.039,0.003 0.085,0.004 0.14,0.004 0.073,0 0.131,-10e-4 0.176,-0.006 0.046,-0.005 0.079,-0.012 0.101,-0.022 0.023,-0.009 0.04,-0.021 0.05,-0.037 0.011,-0.016 0.019,-0.034 0.026,-0.056 l 1.239,-3.691 0.011,-0.032 0.01,0.032 1.125,3.691 c 0.007,0.022 0.017,0.04 0.029,0.056 0.012,0.016 0.029,0.028 0.052,0.037 0.022,0.01 0.053,0.017 0.093,0.022 0.039,0.005 0.091,0.006 0.153,0.006 0.059,0 0.107,-10e-4 0.145,-0.006 0.038,-0.005 0.069,-0.012 0.093,-0.022 0.024,-0.009 0.042,-0.021 0.052,-0.037 0.01,-0.016 0.019,-0.034 0.026,-0.056 l 1.213,-3.691 0.011,-0.032 0.005,0.032 1.234,3.691 c 0.007,0.022 0.016,0.04 0.029,0.056 0.011,0.016 0.03,0.028 0.054,0.037 0.024,0.01 0.058,0.017 0.101,0.022 0.043,0.005 0.1,0.006 0.169,0.006 0.055,0 0.1,-10e-4 0.135,-0.004 0.034,-0.003 0.062,-0.009 0.082,-0.019 0.021,-0.01 0.035,-0.02 0.042,-0.035 0.007,-0.014 0.01,-0.031 0.01,-0.054 m -8.688,-3.984 c 0,-0.066 -0.006,-0.119 -0.018,-0.159 -0.012,-0.041 -0.031,-0.073 -0.057,-0.096 -0.026,-0.024 -0.064,-0.045 -0.114,-0.066 -0.05,-0.02 -0.108,-0.037 -0.173,-0.051 -0.066,-0.014 -0.136,-0.025 -0.208,-0.033 -0.073,-0.007 -0.143,-0.011 -0.213,-0.011 -0.231,0 -0.428,0.028 -0.591,0.084 -0.162,0.055 -0.295,0.14 -0.399,0.255 -0.103,0.113 -0.179,0.256 -0.226,0.431 -0.046,0.175 -0.069,0.38 -0.069,0.617 l 0,2.63 -0.701,0 c -0.048,0 -0.086,0.02 -0.114,0.059 -0.027,0.038 -0.041,0.097 -0.041,0.175 0,0.041 0.003,0.076 0.01,0.105 0.007,0.03 0.017,0.055 0.031,0.074 0.014,0.021 0.03,0.036 0.049,0.045 0.02,0.009 0.041,0.014 0.065,0.014 l 0.701,0 0,1.037 c 0,0.019 0.004,0.036 0.012,0.052 0.009,0.016 0.026,0.028 0.05,0.04 0.024,0.011 0.056,0.019 0.096,0.023 0.039,0.004 0.089,0.007 0.147,0.007 0.063,0 0.114,-0.003 0.154,-0.007 0.039,-0.004 0.07,-0.012 0.093,-0.023 0.022,-0.012 0.038,-0.024 0.049,-0.04 0.01,-0.016 0.016,-0.033 0.016,-0.052 l 0,-1.037 1.296,0 c 0.024,0 0.046,-0.005 0.065,-0.014 0.019,-0.009 0.035,-0.024 0.049,-0.045 0.014,-0.019 0.024,-0.044 0.031,-0.074 0.007,-0.029 0.01,-0.064 0.01,-0.105 0,-0.078 -0.014,-0.137 -0.044,-0.175 -0.029,-0.039 -0.066,-0.059 -0.111,-0.059 l -1.296,0 0,-2.555 c 0,-0.321 0.051,-0.566 0.153,-0.734 0.102,-0.168 0.287,-0.252 0.557,-0.252 0.083,0 0.158,0.008 0.225,0.024 0.068,0.015 0.127,0.032 0.179,0.051 0.052,0.018 0.096,0.036 0.133,0.051 0.036,0.016 0.068,0.024 0.096,0.024 0.017,0 0.032,-0.004 0.046,-0.01 0.014,-0.006 0.025,-0.018 0.034,-0.035 0.008,-0.017 0.015,-0.039 0.021,-0.066 0.005,-0.026 0.007,-0.059 0.007,-0.099 m -4.234,5.778 c 0,-0.043 -0.002,-0.078 -0.008,-0.104 -0.005,-0.027 -0.012,-0.048 -0.02,-0.064 -0.009,-0.015 -0.019,-0.026 -0.031,-0.032 -0.013,-0.007 -0.027,-0.01 -0.044,-0.01 -0.028,0 -0.061,0.008 -0.099,0.024 -0.038,0.015 -0.086,0.033 -0.143,0.051 -0.057,0.019 -0.124,0.036 -0.202,0.051 -0.078,0.016 -0.168,0.024 -0.272,0.024 -0.145,0 -0.268,-0.021 -0.368,-0.063 -0.101,-0.042 -0.182,-0.109 -0.244,-0.201 -0.062,-0.092 -0.107,-0.21 -0.132,-0.356 -0.026,-0.144 -0.039,-0.319 -0.039,-0.525 l 0,-0.5 1.151,0 c 0.024,0 0.045,-0.005 0.062,-0.014 0.018,-0.009 0.033,-0.024 0.047,-0.045 0.013,-0.019 0.024,-0.044 0.031,-0.074 0.007,-0.029 0.01,-0.064 0.01,-0.105 0,-0.078 -0.013,-0.137 -0.041,-0.175 -0.028,-0.039 -0.064,-0.059 -0.109,-0.059 l -1.151,0 0,-3.854 c 0,-0.019 -0.005,-0.036 -0.016,-0.051 -0.01,-0.016 -0.026,-0.028 -0.049,-0.038 -0.022,-0.009 -0.055,-0.017 -0.096,-0.023 -0.041,-0.006 -0.091,-0.009 -0.15,-0.009 -0.059,0 -0.108,0.003 -0.148,0.009 -0.04,0.006 -0.072,0.014 -0.096,0.023 -0.024,0.01 -0.041,0.022 -0.049,0.038 -0.009,0.015 -0.013,0.032 -0.013,0.051 l 0,3.854 -0.705,0 c -0.049,0 -0.086,0.02 -0.112,0.059 -0.026,0.038 -0.039,0.097 -0.039,0.175 0,0.041 0.004,0.076 0.011,0.105 0.006,0.03 0.016,0.055 0.028,0.074 0.012,0.021 0.028,0.036 0.047,0.045 0.019,0.009 0.04,0.014 0.065,0.014 l 0.705,0 0,0.481 c 0,0.296 0.029,0.548 0.088,0.757 0.059,0.209 0.148,0.378 0.267,0.509 0.119,0.131 0.269,0.227 0.449,0.285 0.179,0.06 0.388,0.089 0.627,0.089 0.117,0 0.231,-0.01 0.342,-0.03 0.111,-0.021 0.195,-0.042 0.252,-0.066 0.057,-0.023 0.094,-0.043 0.114,-0.06 0.019,-0.018 0.034,-0.038 0.046,-0.064 0.013,-0.024 0.021,-0.053 0.026,-0.086 0.006,-0.033 0.008,-0.069 0.008,-0.11 m -5.701,-3.924 c 0,0.241 -0.026,0.469 -0.078,0.687 -0.051,0.218 -0.138,0.41 -0.259,0.577 -0.121,0.166 -0.284,0.299 -0.488,0.397 -0.203,0.098 -0.458,0.147 -0.762,0.147 -0.28,0 -0.522,-0.045 -0.726,-0.135 -0.204,-0.091 -0.37,-0.217 -0.5,-0.377 -0.129,-0.16 -0.226,-0.349 -0.288,-0.567 -0.062,-0.218 -0.093,-0.453 -0.093,-0.705 0,-0.243 0.025,-0.475 0.078,-0.695 0.051,-0.219 0.138,-0.411 0.259,-0.577 0.121,-0.164 0.283,-0.296 0.487,-0.392 0.204,-0.096 0.458,-0.145 0.762,-0.145 0.281,0 0.522,0.046 0.726,0.136 0.204,0.09 0.371,0.215 0.501,0.374 0.129,0.158 0.225,0.347 0.288,0.565 0.062,0.218 0.093,0.454 0.093,0.71 m 0.653,0.051 c 0,-0.336 -0.048,-0.645 -0.145,-0.93 -0.097,-0.283 -0.241,-0.529 -0.433,-0.738 -0.192,-0.208 -0.431,-0.371 -0.718,-0.488 -0.287,-0.116 -0.621,-0.175 -1.001,-0.175 -0.366,0 -0.687,0.053 -0.962,0.156 -0.274,0.105 -0.504,0.255 -0.689,0.449 -0.186,0.195 -0.324,0.431 -0.415,0.708 -0.092,0.277 -0.138,0.59 -0.138,0.939 0,0.337 0.048,0.646 0.143,0.93 0.095,0.283 0.239,0.528 0.431,0.736 0.191,0.206 0.431,0.368 0.718,0.483 0.286,0.116 0.622,0.173 1.006,0.173 0.366,0 0.687,-0.052 0.962,-0.154 0.274,-0.103 0.503,-0.252 0.687,-0.446 0.183,-0.195 0.321,-0.431 0.414,-0.708 0.093,-0.277 0.14,-0.589 0.14,-0.935 m -6.681,-0.616 c 0,-0.268 -0.054,-0.508 -0.161,-0.72 -0.107,-0.212 -0.258,-0.391 -0.451,-0.539 -0.194,-0.148 -0.424,-0.262 -0.69,-0.339 -0.266,-0.078 -0.556,-0.117 -0.871,-0.117 -0.215,0 -0.416,0.019 -0.607,0.054 -0.19,0.036 -0.359,0.079 -0.508,0.129 -0.148,0.049 -0.274,0.1 -0.375,0.151 -0.103,0.052 -0.173,0.096 -0.211,0.131 -0.038,0.036 -0.065,0.078 -0.082,0.126 -0.018,0.049 -0.027,0.108 -0.027,0.18 0,0.053 0.004,0.097 0.011,0.131 0.007,0.035 0.016,0.062 0.028,0.084 0.012,0.022 0.028,0.036 0.047,0.044 0.019,0.008 0.039,0.012 0.06,0.012 0.048,0 0.116,-0.027 0.204,-0.082 0.089,-0.054 0.202,-0.113 0.343,-0.177 0.14,-0.064 0.307,-0.124 0.502,-0.178 0.196,-0.054 0.423,-0.082 0.682,-0.082 0.212,0 0.405,0.026 0.581,0.078 0.176,0.05 0.328,0.125 0.457,0.221 0.127,0.097 0.227,0.216 0.298,0.358 0.07,0.141 0.106,0.302 0.106,0.484 0,0.187 -0.045,0.347 -0.135,0.481 -0.09,0.133 -0.208,0.251 -0.355,0.352 -0.147,0.102 -0.314,0.193 -0.501,0.276 -0.186,0.082 -0.377,0.165 -0.572,0.248 -0.196,0.083 -0.387,0.171 -0.574,0.268 -0.186,0.097 -0.353,0.21 -0.5,0.339 -0.147,0.129 -0.265,0.281 -0.355,0.455 -0.09,0.175 -0.135,0.382 -0.135,0.622 0,0.233 0.047,0.442 0.14,0.628 0.093,0.186 0.225,0.343 0.394,0.472 0.17,0.13 0.373,0.228 0.61,0.297 0.236,0.068 0.497,0.102 0.78,0.102 0.142,0 0.285,-0.013 0.43,-0.037 0.146,-0.024 0.283,-0.057 0.413,-0.096 0.129,-0.039 0.245,-0.082 0.347,-0.131 0.102,-0.048 0.169,-0.086 0.202,-0.117 0.033,-0.029 0.054,-0.051 0.062,-0.065 0.009,-0.014 0.017,-0.031 0.024,-0.054 0.007,-0.021 0.012,-0.047 0.016,-0.076 0.002,-0.03 0.004,-0.066 0.004,-0.11 0,-0.04 -0.002,-0.078 -0.007,-0.111 -0.005,-0.032 -0.013,-0.06 -0.024,-0.084 -0.01,-0.022 -0.023,-0.041 -0.038,-0.052 -0.016,-0.013 -0.034,-0.02 -0.055,-0.02 -0.038,0 -0.096,0.023 -0.173,0.068 -0.079,0.045 -0.176,0.096 -0.293,0.152 -0.118,0.056 -0.258,0.107 -0.421,0.152 -0.162,0.045 -0.347,0.067 -0.554,0.067 -0.205,0 -0.382,-0.024 -0.535,-0.074 -0.152,-0.05 -0.278,-0.118 -0.378,-0.204 -0.1,-0.085 -0.175,-0.185 -0.226,-0.301 -0.049,-0.115 -0.075,-0.237 -0.075,-0.364 0,-0.187 0.045,-0.348 0.135,-0.481 0.09,-0.134 0.209,-0.252 0.358,-0.355 0.148,-0.103 0.317,-0.196 0.505,-0.278 0.189,-0.083 0.381,-0.165 0.576,-0.248 0.195,-0.083 0.387,-0.171 0.576,-0.266 0.188,-0.096 0.356,-0.207 0.505,-0.337 0.148,-0.129 0.268,-0.28 0.358,-0.453 0.09,-0.173 0.135,-0.378 0.135,-0.614"
       style="fill:#ffffff;fill-opacity:1;fill-rule:nonzero;stroke:none"
       id="path22"
       inkscape:connector-curvature="0" /></g></svg>