<svg height="480pt" viewBox="0 0 480 480" width="480pt" xmlns="http://www.w3.org/2000/svg" xmlns:xlink="http://www.w3.org/1999/xlink"><linearGradient id="a"><stop offset="0" stop-color="#e93e3a"/><stop offset=".35" stop-color="#ed683c"/><stop offset=".7" stop-color="#f3903f"/><stop offset="1" stop-color="#fdc70c"/></linearGradient><linearGradient id="b" gradientUnits="userSpaceOnUse" x1="240" x2="240" xlink:href="#a" y1="494.56" y2="-15.664"/><linearGradient id="c" gradientUnits="userSpaceOnUse" x1="368" x2="368" xlink:href="#a" y1="494.56" y2="-15.664"/><linearGradient id="d" gradientUnits="userSpaceOnUse" x1="352" x2="352" xlink:href="#a" y1="494.56" y2="-15.664"/><linearGradient id="e" gradientUnits="userSpaceOnUse" x1="384" x2="384" xlink:href="#a" y1="494.56" y2="-15.664"/><linearGradient id="f" gradientUnits="userSpaceOnUse" x1="320" x2="320" xlink:href="#a" y1="494.56" y2="-15.664"/><linearGradient id="g" gradientUnits="userSpaceOnUse" x1="64" x2="64" xlink:href="#a" y1="494.56" y2="-15.664"/><linearGradient id="h" gradientUnits="userSpaceOnUse" x1="144" x2="144" xlink:href="#a" y1="494.56" y2="-15.664"/><linearGradient id="i" gradientUnits="userSpaceOnUse" x1="72" x2="72" xlink:href="#a" y1="494.56" y2="-15.664"/><linearGradient id="j" gradientUnits="userSpaceOnUse" x1="152" x2="152" xlink:href="#a" y1="494.56" y2="-15.664"/><linearGradient id="k" gradientUnits="userSpaceOnUse" x1="80" x2="80" xlink:href="#a" y1="494.56" y2="-15.664"/><linearGradient id="l" gradientUnits="userSpaceOnUse" x1="160" x2="160" xlink:href="#a" y1="494.56" y2="-15.664"/><path d="m456 240h-176c-13.253906 0-24 10.746094-24 24v104c0 13.253906 10.746094 24 24 24h64v24h-32v16h-72v-43.359375c-.082031-25.226563-16.941406-47.316406-41.257812-54.039063l-46.742188-12.714843v-12c15.027344-10.445313 23.988281-27.585938 24-45.886719v-8c4.417969 0 8-3.582031 8-8v-24c-.039062-35.328125-28.671875-63.960938-64-64h-72c-8.835938 0-16 7.164062-16 16v40c-.050781 18.1875 12.226562 34.101562 29.832031 38.664062.710938.199219 1.449219.289063 2.167969.441407v8.894531c.011719 18.300781 8.972656 35.441406 24 45.886719v12l-46.769531 12.722656c-24.300781 6.730469-41.152344 28.8125-41.230469 54.03125v83.359375c0 4.417969 3.582031 8 8 8h464c4.417969 0 8-3.582031 8-8v-32c0-4.417969-3.582031-8-8-8h-48v-16h-32v-24h64c13.253906 0 24-10.746094 24-24v-104c0-13.253906-10.746094-24-24-24zm-408-24v-40h72c26.5.027344 47.972656 21.5 48 48v16h-5.28125c-7.324219-.015625-13.710938-4.988281-15.519531-12.089844l-3.4375-13.839844c-.746094-2.992187-3.144531-5.292968-6.167969-5.910156-.527344-.109375-1.058594-.160156-1.59375-.160156-2.519531 0-4.890625 1.1875-6.398438 3.199219l-4.800781 6.402343c-2.859375 3.761719-6.167969 7.167969-9.847656 10.132813-9.917969 7.945313-22.246094 12.273437-34.953125 12.265625h-8c-2.035156.019531-4.0625-.25-6.023438-.800781-10.59375-2.707031-18-12.265625-17.976562-23.199219zm32 48v-8c16.378906-.003906 32.265625-5.597656 45.03125-15.855469 2.523438-2.042969 4.914062-4.242187 7.152344-6.59375 3.914062 12.359375 14.898437 21.136719 27.816406 22.226563v8.222656c0 22.089844-17.910156 40-40 40s-40-17.910156-40-40zm40 56c5.421875-.015625 10.8125-.824219 16-2.398438v10.398438c.027344 2.292969 1.042969 4.460938 2.792969 5.945312l-18.792969 15.65625-18.792969-15.648437c1.75-1.484375 2.769531-3.65625 2.792969-5.953125v-10.398438c5.1875 1.574219 10.578125 2.382813 16 2.398438zm-74.535156 30.039062 37.734375-10.269531 31.679687 26.398438c2.96875 2.46875 7.273438 2.46875 10.242188 0l31.679687-26.398438 37.710938 10.261719c17.371093 4.804688 29.421875 20.585938 29.488281 38.609375v43.359375h-24v-40h-16v40h-128v-40h-16v40h-24v-43.359375c.058594-18.015625 12.101562-33.792969 29.464844-38.601563zm418.535156 97.960938v16h-448v-16zm-104-32v-88h16v88zm104-48c0 4.417969-3.582031 8-8 8h-64v-56c0-4.417969-3.582031-8-8-8h-32c-4.417969 0-8 3.582031-8 8v56h-64c-4.417969 0-8-3.582031-8-8v-104c0-4.417969 3.582031-8 8-8h176c4.417969 0 8 3.582031 8 8zm0 0" fill="url(#b)"/><path d="m456 0h-144c-13.253906 0-24 10.746094-24 24v8h-8c-13.253906 0-24 10.746094-24 24v112c0 13.253906 10.746094 24 24 24h144c13.253906 0 24-10.746094 24-24v-8h8c13.253906 0 24-10.746094 24-24v-112c0-13.253906-10.746094-24-24-24zm-176 48h144c4.417969 0 8 3.582031 8 8v8h-160v-8c0-4.417969 3.582031-8 8-8zm144 128h-144c-4.417969 0-8-3.582031-8-8v-88h160v88c0 4.417969-3.582031 8-8 8zm40-40c0 4.417969-3.582031 8-8 8h-8v-88c0-13.253906-10.746094-24-24-24h-120v-8c0-4.417969 3.582031-8 8-8h144c4.417969 0 8 3.582031 8 8zm0 0" fill="url(#c)"/><path d="m344 112h16v16h-16zm0 0" fill="url(#d)"/><path d="m376 112h16v16h-16zm0 0" fill="url(#e)"/><path d="m312 112h16v16h-16zm0 0" fill="url(#f)"/><path d="m48 32h32v16h-32zm0 0" fill="url(#g)"/><path d="m96 32h96v16h-96zm0 0" fill="url(#h)"/><path d="m56 96h32v16h-32zm0 0" fill="url(#i)"/><path d="m104 96h96v16h-96zm0 0" fill="url(#j)"/><path d="m64 64h32v16h-32zm0 0" fill="url(#k)"/><path d="m112 64h96v16h-96zm0 0" fill="url(#l)"/></svg>