<svg height="480pt" viewBox="0 -24 480 480" width="480pt" xmlns="http://www.w3.org/2000/svg" xmlns:xlink="http://www.w3.org/1999/xlink"><linearGradient id="a"><stop offset="0" stop-color="#e93e3a"/><stop offset=".35" stop-color="#ed683c"/><stop offset=".7" stop-color="#f3903f"/><stop offset="1" stop-color="#fdc70c"/></linearGradient><linearGradient id="b" gradientUnits="userSpaceOnUse" x1="217.144" x2="214.816" xlink:href="#a" y1="443.208" y2="-18.696"/><linearGradient id="c" gradientUnits="userSpaceOnUse" x1="58.04" x2="55.704" xlink:href="#a" y1="444.008" y2="-17.888"/><linearGradient id="d" gradientUnits="userSpaceOnUse" x1="90.04" x2="87.704" xlink:href="#a" y1="443.848" y2="-18.048"/><linearGradient id="e" gradientUnits="userSpaceOnUse" x1="122.04" x2="119.704" xlink:href="#a" y1="443.688" y2="-18.216"/><linearGradient id="f" gradientUnits="userSpaceOnUse" x1="266.032" x2="263.704" xlink:href="#a" y1="442.96" y2="-18.936"/><linearGradient id="g" gradientUnits="userSpaceOnUse" x1="264.624" x2="262.288" xlink:href="#a" y1="442.968" y2="-18.936"/><linearGradient id="h" gradientUnits="userSpaceOnUse" x1="296.624" x2="294.288" xlink:href="#a" y1="442.8" y2="-19.096"/><linearGradient id="i" gradientUnits="userSpaceOnUse" x1="328.616" x2="326.288" xlink:href="#a" y1="442.64" y2="-19.256"/><linearGradient id="j" gradientUnits="userSpaceOnUse" x1="376.616" x2="374.288" xlink:href="#a" y1="442.4" y2="-19.496"/><linearGradient id="k" gradientUnits="userSpaceOnUse" x1="408.616" x2="406.288" xlink:href="#a" y1="442.24" y2="-19.656"/><linearGradient id="l" gradientUnits="userSpaceOnUse" x1="440.616" x2="438.28" xlink:href="#a" y1="442.072" y2="-19.824"/><linearGradient id="m" gradientUnits="userSpaceOnUse" x1="352.84" x2="350.512" xlink:href="#a" y1="442.52" y2="-19.376"/><linearGradient id="n" gradientUnits="userSpaceOnUse" x1="265.064" x2="262.736" xlink:href="#a" y1="442.96" y2="-18.936"/><linearGradient id="o" gradientUnits="userSpaceOnUse" x1="297.064" x2="294.728" xlink:href="#a" y1="442.8" y2="-19.096"/><linearGradient id="p" gradientUnits="userSpaceOnUse" x1="329.064" x2="326.728" xlink:href="#a" y1="442.64" y2="-19.256"/><linearGradient id="q" gradientUnits="userSpaceOnUse" x1="377.064" x2="374.728" xlink:href="#a" y1="442.4" y2="-19.504"/><linearGradient id="r" gradientUnits="userSpaceOnUse" x1="409.064" x2="406.728" xlink:href="#a" y1="442.232" y2="-19.664"/><linearGradient id="s" gradientUnits="userSpaceOnUse" x1="441.064" x2="438.728" xlink:href="#a" y1="442.072" y2="-19.824"/><linearGradient id="t" gradientUnits="userSpaceOnUse" x1="73.552" x2="71.224" xlink:href="#a" y1="443.928" y2="-17.968"/><linearGradient id="u" gradientUnits="userSpaceOnUse" x1="72.344" x2="70.008" xlink:href="#a" y1="443.936" y2="-17.96"/><linearGradient id="v" gradientUnits="userSpaceOnUse" x1="177.112" x2="174.776" xlink:href="#a" y1="443.408" y2="-18.488"/><linearGradient id="w" gradientUnits="userSpaceOnUse" x1="329.632" x2="327.296" xlink:href="#a" y1="442.64" y2="-19.264"/><linearGradient id="x" gradientUnits="userSpaceOnUse" x1="73.032" x2="70.696" xlink:href="#a" y1="443.936" y2="-17.968"/><path d="m416 408c0 4.417969-3.582031 8-8 8h-384c-4.417969 0-8-3.582031-8-8v-328h400v96h16v-152c0-13.253906-10.746094-24-24-24h-384c-13.253906 0-24 10.746094-24 24v384c0 13.253906 10.746094 24 24 24h384c13.253906 0 24-10.746094 24-24v-8h-16zm-392-392h384c4.417969 0 8 3.582031 8 8v40h-400v-40c0-4.417969 3.582031-8 8-8zm0 0" fill="url(#b)"/><path d="m48 32h16v16h-16zm0 0" fill="url(#c)"/><path d="m80 32h16v16h-16zm0 0" fill="url(#d)"/><path d="m112 32h16v16h-16zm0 0" fill="url(#e)"/><path d="m176 32h176v16h-176zm0 0" fill="url(#f)"/><path d="m256 312h16v16h-16zm0 0" fill="url(#g)"/><path d="m288 312h16v16h-16zm0 0" fill="url(#h)"/><path d="m320 312h16v16h-16zm0 0" fill="url(#i)"/><path d="m368 304h16v32h-16zm0 0" fill="url(#j)"/><path d="m400 304h16v32h-16zm0 0" fill="url(#k)"/><path d="m432 304h16v32h-16zm0 0" fill="url(#l)"/><path d="m464 272c8.835938 0 16-7.164062 16-16v-48c0-8.835938-7.164062-16-16-16h-224c-8.835938 0-16 7.164062-16 16v48c0 8.835938 7.164062 16 16 16h8v8h-8c-8.835938 0-16 7.164062-16 16v48c0 8.835938 7.164062 16 16 16h8v16c0 4.417969 3.582031 8 8 8h32c4.417969 0 8-3.582031 8-8v-16h112v16c0 4.417969 3.582031 8 8 8h32c4.417969 0 8-3.582031 8-8v-16h8c8.835938 0 16-7.164062 16-16v-48c0-8.835938-7.164062-16-16-16h-8v-8zm-224-64h224v48h-224zm56 72v-8h112v8zm-32-8h16v8h-16zm16 96h-16v-8h16zm160 0h-16v-8h16zm24-24h-224v-48h224zm-24-64h-16v-8h16zm0 0" fill="url(#m)"/><path d="m256 224h16v16h-16zm0 0" fill="url(#n)"/><path d="m288 224h16v16h-16zm0 0" fill="url(#o)"/><path d="m320 224h16v16h-16zm0 0" fill="url(#p)"/><path d="m368 216h16v32h-16zm0 0" fill="url(#q)"/><path d="m400 216h16v32h-16zm0 0" fill="url(#r)"/><path d="m432 216h16v32h-16zm0 0" fill="url(#s)"/><path d="m72 160c13.253906 0 24-10.746094 24-24s-10.746094-24-24-24-24 10.746094-24 24 10.746094 24 24 24zm0-32c4.417969 0 8 3.582031 8 8s-3.582031 8-8 8-8-3.582031-8-8 3.582031-8 8-8zm0 0" fill="url(#t)"/><path d="m72 400c13.253906 0 24-10.746094 24-24s-10.746094-24-24-24-24 10.746094-24 24 10.746094 24 24 24zm0-32c4.417969 0 8 3.582031 8 8s-3.582031 8-8 8-8-3.582031-8-8 3.582031-8 8-8zm0 0" fill="url(#u)"/><path d="m152 176h56c13.253906 0 24-10.746094 24-24v-16c0-4.417969 3.582031-8 8-8h48v-16h-48c-13.253906 0-24 10.746094-24 24v16c0 4.417969-3.582031 8-8 8h-56v-8c0-13.253906-10.746094-24-24-24h-16v16h16c4.417969 0 8 3.582031 8 8v80h-24v16h24v48c0 4.417969-3.582031 8-8 8h-40c-13.253906 0-24 10.746094-24 24v8h16v-8c0-4.417969 3.582031-8 8-8h40c13.253906 0 24-10.746094 24-24v-8h16v32c0 8.835938 7.164062 16 16 16h24v-16h-24v-80h24v-16h-24c-8.835938 0-16 7.164062-16 16v32h-16zm0 0" fill="url(#v)"/><path d="m304 120c0 13.253906 10.746094 24 24 24s24-10.746094 24-24-10.746094-24-24-24-24 10.746094-24 24zm32 0c0 4.417969-3.582031 8-8 8s-8-3.582031-8-8 3.582031-8 8-8 8 3.582031 8 8zm0 0" fill="url(#w)"/><path d="m72 264c13.253906 0 24-10.746094 24-24s-10.746094-24-24-24-24 10.746094-24 24 10.746094 24 24 24zm0-32c4.417969 0 8 3.582031 8 8s-3.582031 8-8 8-8-3.582031-8-8 3.582031-8 8-8zm0 0" fill="url(#x)"/></svg>